/* XPM */
static char *e9716eccb2394b85ec2b138280a9aff8Qjeqq5xlSscck2OD[] = {
/* columns rows colors chars-per-pixel */
"64 64 256 2 ",
"   c #4A1838",
".  c #3B2F7E",
"X  c #362D78",
"o  c #37347C",
"O  c #352F6F",
"+  c #3C1E4C",
"@  c #4A1947",
"#  c #721556",
"$  c #582543",
"%  c #532E52",
"&  c #6E2E53",
"*  c #561D67",
"=  c #77186A",
"-  c #681C6C",
";  c #47286A",
":  c #493C75",
">  c #563479",
",  c #502D71",
"<  c #6C2D6B",
"1  c #2A5D6C",
"2  c #2F5175",
"3  c #2B666D",
"4  c #336A6D",
"5  c #296B74",
"6  c #336973",
"7  c #287176",
"8  c #376E59",
"9  c #704B58",
"0  c #504D70",
"q  c #6D4E6D",
"w  c #4F6971",
"e  c #565264",
"r  c #9A3213",
"t  c #AC1539",
"y  c #AD2A2D",
"u  c #A0341A",
"i  c #CA3836",
"p  c #D13A38",
"a  c #CB2D34",
"s  c #BA4526",
"d  c #B1560B",
"f  c #C64626",
"g  c #C94038",
"h  c #C04C1D",
"j  c #9B0D5C",
"k  c #8A1B5B",
"l  c #981558",
"z  c #8E0954",
"x  c #A7095A",
"c  c #B50156",
"v  c #BB0056",
"b  c #B50259",
"n  c #BC0159",
"m  c #B80B56",
"M  c #AC114F",
"N  c #8B2E58",
"B  c #BB3959",
"V  c #AD315C",
"C  c #901366",
"Z  c #B1176D",
"A  c #8E2C6D",
"S  c #B7276B",
"D  c #AD2D70",
"F  c #D61949",
"G  c #C30159",
"H  c #CA0059",
"J  c #C60056",
"K  c #D9185A",
"L  c #CD1555",
"P  c #E1135C",
"I  c #E40F5F",
"U  c #CB2A57",
"Y  c #DA235D",
"T  c #D42B5C",
"R  c #D6255A",
"E  c #C73758",
"W  c #D22F4A",
"Q  c #E22156",
"!  c #DD0F69",
"~  c #D90E67",
"^  c #CA1768",
"/  c #DB1462",
"(  c #DD1D62",
")  c #D4136B",
"_  c #DC116A",
"`  c #D51865",
"'  c #D51871",
"]  c #E50E64",
"[  c #EA0E66",
"{  c #E30F6A",
"}  c #EB0D69",
"|  c #E31263",
" . c #E4116B",
".. c #E61565",
"X. c #F00C67",
"o. c #C62966",
"O. c #DC2462",
"+. c #DB2861",
"@. c #D42762",
"#. c #C73865",
"$. c #D2326D",
"%. c #E32466",
"&. c #F53570",
"*. c #B9445B",
"=. c #B94643",
"-. c #AB5065",
";. c #8E5D69",
":. c #C74352",
">. c #EA466C",
",. c #E0606F",
"<. c #769951",
"1. c #6B8E70",
"2. c #559474",
"3. c #FEE735",
"4. c #FEE834",
"5. c #FFE53B",
"6. c #FFE93D",
"7. c #FDD43E",
"8. c #FFBB5A",
"9. c #F0A75A",
"0. c #F79A6B",
"q. c #F9977A",
"w. c #F88C72",
"e. c #F3A364",
"r. c #FFB669",
"t. c #FFAA76",
"y. c #FFB977",
"u. c #EFB061",
"i. c #DFA275",
"p. c #FFDC4A",
"a. c #FFC95A",
"s. c #FFDC54",
"d. c #FFD65A",
"f. c #FFCD49",
"g. c #FFE343",
"h. c #FFE24B",
"j. c #F9E842",
"k. c #F1E956",
"l. c #FFC867",
"z. c #FFD465",
"x. c #FFC774",
"c. c #FFD37A",
"v. c #D3E26E",
"b. c #E5E16E",
"n. c #988672",
"m. c #3B3B82",
"M. c #5F3C84",
"N. c #394B86",
"B. c #454C88",
"V. c #71748F",
"C. c #615D82",
"Z. c #993182",
"A. c #8C6C8C",
"S. c #A9729A",
"D. c #FB7A8A",
"F. c #FF6D9B",
"G. c #FF6997",
"H. c #FF7494",
"J. c #FF7C95",
"K. c #FF739A",
"L. c #FF7B9B",
"P. c #F57B9A",
"I. c #F96F92",
"U. c #FF6CA2",
"Y. c #FE77A3",
"T. c #E76CA7",
"R. c #E56DA2",
"E. c #3F8E95",
"W. c #458C95",
"Q. c #42949B",
"!. c #4A9197",
"~. c #4F8E8D",
"^. c #769687",
"/. c #699191",
"(. c #69A998",
"). c #75A898",
"_. c #6AB297",
"`. c #7AB298",
"'. c #6EA78C",
"]. c #7098B0",
"[. c #67A9A4",
"{. c #6EAFA3",
"}. c #86A999",
"|. c #86B69A",
" X c #90AE95",
".X c #8692A5",
"XX c #86B5A3",
"oX c #88A8A8",
"OX c #B7ACA3",
"+X c #A4919A",
"@X c #D7989D",
"#X c #CD8D99",
"$X c #FE8E8D",
"%X c #FC848A",
"&X c #F9918B",
"*X c #FE8293",
"=X c #FF8C94",
"-X c #FF839B",
";X c #FF8A9A",
":X c #F48999",
">X c #EA9A98",
",X c #F39394",
"<X c #FC9292",
"1X c #F89799",
"2X c #E58A95",
"3X c #DCAA9D",
"4X c #FFB686",
"5X c #EBA39B",
"6X c #FFA696",
"7X c #FFAE8C",
"8X c #D995A4",
"9X c #CF92A6",
"0X c #FB87A3",
"qX c #E899A8",
"wX c #ED93A5",
"eX c #D0AEA4",
"rX c #F5AFB3",
"tX c #F5CA8B",
"yX c #FFCCB5",
"uX c #D7E495",
"iX c #AAAAD5",
"pX c #9BB6E9",
"aX c #A5B0ED",
"sX c #FB96CE",
"dX c #FEB9CA",
"fX c #FFB8D7",
"gX c #FFACCF",
"hX c #DCB9F1",
"jX c #ADD3F0",
"kX c #BCE0DC",
"lX c #D2D9D2",
"zX c #FFC2CB",
"xX c #FFCAC7",
"cX c #FFD5CC",
"vX c #FFDBCC",
"bX c #FCD5C8",
"nX c #FFC9D3",
"mX c #EAD7DC",
"MX c #FED8D5",
"NX c #EDC0DD",
"BX c #C7EBD5",
"VX c #D7E8D8",
"CX c #C7F3D8",
"ZX c #FEE4D2",
"AX c #F7E8D9",
"SX c #F7E4D2",
"DX c #D8CDF0",
"FX c #E6DAF9",
"GX c #F6D6EC",
"HX c #D7E9EC",
"JX c #F6EAE8",
"KX c #EBE3FD",
"LX c #FAE9FB",
"PX c #FFFCFF",
"IX c #F9F5FD",
"UX c #EBF1F3",
/* pixels */
"3.3.3.3.3.3.3.3.3.3.3.3.3.3.3.3.3.4.3.g.s.z.tXZXZXxX-XH.J.*X=X$X$X<XJ.E T K | ] { ) j = - M.FXIXFXC.DX> D o._ K <Xx.s.3.5.3.4.4.",
"3.3.3.3.3.3.3.4.3.3.3.3.3.3.3.3.3.5.g.s.z.u.yXyXyX-.*.*.*.:X=X=X=X=XJ.H.G.G.%.P ( @.S D Z.- > : 0 DXC., # R.$.U i h 8.s.g.4.4.4.",
"3.3.3.3.3.3.3.3.3.3.3.4.3.3.3.3.3.h.l.e.q.&X%X*.-.dXcXzX>X1X;XD.L.H.T E T T J.J.J.H.#.o.Z = * O : FX: O , q qX0XE a i r.s.3.3.3.",
"3.3.3.3.3.3.3.3.3.3.3.4.3.3.3.5.5.d.e.q.,.:.E J.dXnXMXMXdXdXJ.E U E H.L.*XJ.=X<X$X=XL.K.o.D - ; : DX: : KXLXLXGX0Xo.L g r.p.3.3.",
"3.3.3.3.4.4.3.3.4.4.3.3.3.3.3.g.d.9.q.D.:.D.*X=X1X1X;XL.$.R T U E J.=X<X<X=X=X$X$X<X=X=X:XY.D < , : 0 KXPXPXPXIXLX0XU F s l.h.4.",
"3.3.3.3.4.4.3.3.4.4.3.3.3.3.3.p.c.t.%X:.D.;X=X=X*XH.U R Y R F.L.J.;X<X1X&X&X,X&X$X$X=X=X<X:X:XD - > FXPXPXPXPXPXIXGX$.L i t.s.3.",
"3.3.3.3.4.4.4.3.4.4.3.3.3.3.6.d.e.,.:.D.;X=X;XH.U T L T H.*X;X=X=X<XxXxX5X>X,X,X&X$X=X%X=X=X;XP.D A LXPXKXIXPXPXPXGXY.Y K p a.6.",
"3.3.3.3.4.4.4.3.4.4.3.3.4.3.5.8.y E D.;X=X;XD.U T G.+.G.;X;X;XJ.J.*X>XxXxXxXyX5X1X<X*XB %X<X=X;XB D GXLXe 0 HXPXLX9 P.T K a r.s.",
"3.3.3.3.3.3.3.3.4.4.3.3.4.g.f.d s ,.1X=X-XH.T R K.H.E J.;XL.F.O.O.U B =X1X1XxXbXyXzXJ.E ,X>X1XwXL.V N LXFXe q IXIX9 2XL.K F f x.",
"3.3.3.3.3.3.3.3.4.4.3.3.4.5.h.a.4X$X<XJ.U R T K.L.E H.0XH.T K / K ( H.*X$X&X>X1X1X:XE J.zXxXxXyX1XR.-.GXIXLXHXLXLXLXwXL.%.F p 1X",
"3.3.3.3.3.3.3.3.3.3.3.3.3.3.j.z.t.%XG.T L R H.0XF.T L.K.O./ { K T K.*X*X$X$X<X;XL.U E J.;X1X1X<X;X0XD A GXKXV.DXC.GX1X=XG.R K Q ",
"4.3.3.3.3.4.3.3.3.3.3.3.3.5.g.d.q.J.Y K T F.0XH.O.O.G.+.I } } %.F.J.:.*X=X=X=XH.T L H.H.E J.=X$X<X*Xo.D < 0 DXV.DX;.2X:XL.Y I X.",
"3.3.3.3.3.3.3.3.3.3.3.3.3.g.d.9.%XT K O.G.0XF.O.K | ..K ] ] ..G.F.E D.=X=X=XK.T L %.Y.U U J.=X$X<XJ.@.D * > FXKXLX8X:X=XK.R I X.",
"3.3.3.3.3.4.4.3.3.3.3.3.4.g.d.0.D.Q I P L.-XO.K } | ( ( O.@.U @.T K.-X=X:XH.@.L T F.K.U U L.=X$X=X=XF.S - , : : & 8X,X=XL.Y I X.",
"3.3.3.3.4.4.3.3.3.3.4.4.4.p.z.0.R ..I %.L.K./ ..K @.L.0X:X:X:XP.E F.K.L.J.T R T H.L.E H.#.H.=X$X$X=XL.o.A - ; O % 8X1X;XK.Y | X.",
"3.3.3.3.4.4.3.4.3.3.4.4.4.5.l.w.a K P R G.T ( ` @.-XnXcXcXcXvXxX#.E E E E Y.U.T -XJ.*.fXgX*.%X<X$X=XL.o.D = > : < 8X,X=XL.Y ] X.",
"4.3.3.3.3.3.3.3.5.3.3.3.4.h.l.s y Q <X:.I.R L $.dXMXMXZXZXZXZXMXzX>X:X*X0XgXsX$.G.*.dXMXdX*.%X<X$X=XL.o.C A hXq NXrX,X;XK.K ..} ",
"3.3.3.3.4.3.3.3.3.3.3.3.4.h.r.h h 7X6Xi I.R E gXnXcXnXnXMXZXZXZXvXMXzX;XP.*.#.B #.:XqXMXnX-.D.;X$X;XJ.o.Z - M.FXq #X,X;XL.O.] X.",
"3.3.3.3.3.3.3.3.3.3.3.3.4.p.r.d 8.c.7Xi U $.dXqX-.B #.B 0XzXMXZXMXcXL.E B :XdXzXxXxXbXvXnX2XE *X=X=XK.o.D - q GX9 8X<X;XK...} } ",
"3.3.3.3.3.3.3.3.3.3.3.3.4.g.l.d a.x.w.W U sXMXnXdX0XK.E V -.cXZXvX8XB B :XzX3X8X8X8X8X@XMXxXB J.;X=XL.o.Z A hXC.nXqX:X*XT P } } ",
"3.3.3.3.3.3.3.3.3.3.3.3.3.g.d.l.e.q.D.R K $.dXMXMXnXzXwX2X>XvXZXvX3X2X1XzX9X$ $ $ $ $ $ @XdXE L.=X;XK.@.D = > % 8X1X<XJ.K  .}  .",
"3.3.3.3.3.4.3.3.3.3.3.5.5.p.z.e.q.=XL.@./ @.2X8X@X@X@XcXvXvXZXZXZXcXMXnX@X$ @ @ + + @   $ 2X*.J.;X*XY ` D = ; : qX<X;XH.....{ H ",
"3.3.3.4.3.3.3.3.3.3.3.5.p.d.e.q.&X*XF.( / Z # $ $ $ $ #XMXZXZXZXZXZXMX#X$ % ; ; : 2 % @   & 2X=X;XH./ ' Z.# < 9X8X0XL.T / } { H ",
"3.3.3.3.3.3.3.3.3.3.5.p.z.9.q.$X=X*XT K ^ z   @ @ @ $ % OXvXZXZXZXZXZX% $ DX: 2 pX].DX$ $ dX1X=XL.T P _ ^ A fXfXN :XY.K ..} { H ",
"3.3.4.3.3.3.3.3.3.5.h.z.e.q.&X$X;XH.( ` z #   % % % .XlX9 mXZXZXZXZXAXmX.X0 2 V.jX{.DX9 rXrX<X;XF.K ] / o.fXnX;.dX0X@...} } { J ",
"3.3.4.3.3.3.3.3.3.g.a.9.q.$X=X;XH.T | _ x # # DX> V.jXIXJXAXAXZXZXZXZXJXUX].iXkXkXHXq xX5X,X<XL.+.| [ ~ B fXqX#XgX-.` } ] [ { J ",
"3.3.3.3.3.3.3.3.6.s.9.q.&X$XL.K.%.K ] | m l < A.].].lXUXJXAXZXZXAXAXZXAXJXUXoXoXUXPXxX>X,X$X*XH.( [ } K #.wX2XN N k ^ H } }  .H ",
"3.3.3.3.3.3.3.5.g.a.q.=X*XH.T K ] } { ! n Z S.e ].jXUXHXmXmXmXmXSXmXmXmXmXLXHXmXJXcX5X,X$X=X-XT P [ [ ( gXnXwX8XfXD Z J { { ! H ",
"3.3.3.3.3.3.3.g.d.9.%XH.Y P | | { { _ G c M wXNXKXHXDX0 O 0 : : : : : : 0 DXJXMXbX>X&X<X=X;XK.K ..} ] ( -X1XzXrXnXD b G { } { G ",
"3.3.3.3.3.3.3.p.l.w.W Y | [ } } { J n v v l wXGXNX0 : O o o m.X X X O X o % 9 @X>X,X<X=X=XH.O.P } } { O.L.>X5XnXfXo.c n { } { H ",
"3.4.3.3.3.3.5.s.t.W F [ [ } { _ G v v v b Z S.q : O O o pXjXpXN.X o X B.iXe #X,X&X=X=X=XH.O.| } } } ~ m :X5XnXfX$.` v n { } H _ ",
"3.3.3.3.4.5.p.8.p F ..[ .. .J v c v G ) b j < ; O X m.X N.jXN.o o X m.iXq 9X:X$X=X=X=XH.O.K [ } } ..G M fXMXdXB ^ v v n _ } H _ ",
"3.3.3.3.4.p.a.f F ] } } _ G v b v G _ ! n z ; 0 m.m.X m.X m.X X X m.iXq 9XwX:X%X=X=XG.Y P } [ } } _ v m gXfX$.^ b b b G _ { H { ",
"3.3.3.3.4.s.t.a P } } { J c b b G _ _ H t k > aXaXm.m.m.m.X m.m.. X > 9XwX:X=X;X*XJ.+.P [ } }  . .G b m S o.^ G b b b n _ H { } ",
"3.3.3.4.3.a.p P I [ { J v b b v _  . .t y 5X0 o m.pXaXm.X m.m.X : ; & qX0XJ.L.F.Y P ] } } [ }  .G v G _ ` ` n b b b b G _ H { } ",
"3.4.4.3.5.a.a I X.[ ! v c b c v  . ./ t y.tX% X m.m.m.X X m.m.m.X , 9XY.P.#.R ( I ] } } } }  .G v G  . .} ! n b b v G ) J / P Q ",
"3.3.3.3.j.a.W [ X.] G b c c c m { P F y tXi.& > pXpXpXm.X m.m.m., M.T.o.S S ) { } } } } { _ G n J _ } { _ G v b b n ^ H H K W <X",
"3.3.3.3.5.a.a [ K / v c t M t t K P W 6X7Xi.A - m.N.N.m.X m.m.* M.9XZ.S j x _ } } { } { H G v G { { { ! G v b b G ^ G G { F i 4X",
"3.3.3.3.6.a.a P K t c M y 6Xx.t.F L p 6X$XD.Z C ; X N.pXm.m.m.m.* M.A sXC ^  .} }  ._ G b v H !  . .! G v b v v ^ G n G } F i y.",
"3.3.3.3.6.a.a R -Xt M t r x.s.a.p a i 6XJ.T ^ Z.- m.aXN.X m.m.m.- = C Z.Z.' _ { { J n b v G _  . .! G c b b n ) G b n ~ } F i 4X",
"3.3.3.3.5.a.y g 6Xy t t r a.h.p.8.f i D.G.Y / ' Z.C M.m.m.m.m.* = C ' ' ) ) ) G v v b v G _ _ ) G n b v v b ' n b b G _ } K i y.",
"3.3.3.3.j.f.h 7XtXr t t u.s.5.g.d.r.:.G.%.K ] { { Z.= - m.; * M.Z.Z.' ) J G n v b b b v ~ _ H G b v b b n ) n v b v G  .} F f r.",
"3.3.4.3.4.f.d y.z.u.r t l.g.3.j.s.x.q.G.K ] ..| { ' S C - m.* M.- C C b v v b c b b b n G G v v n G G ' ) H v b b b { } X.W r.s.",
"3.3.4.4.4.7.d a.s.a.r r a.h.p.d.l.9.%XT K } U.%.} } ' Z C M.- - = C j S o.m v v v v G ) ` n v v n ) ) H H ) b b b G { } I a a.j.",
"3.3.3.4.3.5.p.p.5.h.r.d d.d.l.9.0.&XH.Y K ..U...} } _ b x j C j j x P.0XK.T ` / K / | ..@.` ` ) ) n G G _ _ v b n ! } I F p f.6.",
"3.3.3.5.j.g.g.g.g.h.z.x.l.9.0.&X=XH.R K %.U.../ .. .G c b x x j j l 0X1X;XH.>.&.&.&.&.&.G.m v v n v n _  .G v v J { } P a t.s.3.",
"3.3.5.g.s.l.z.z.z.x.e.q.q.&X&X%XG.T L O.F.Y... .}  .n b b j C < < & zX>X&X=XH.>.&.&.&.>.U.M m c b v G _ _ n b v { } X.F f l.h.3.",
"p.s.s.d.9.9.e.e.e.0.$X$X=X*XH.T R K +.U.F.T | } ' n x l C = A.V.A.A.MXcX>X$X=XD.>.>.>.>.P.l l x x b _  .G v n G { } [ a r.s.5.3.",
"x.9.0.0.q.q.&Xq.&X&XJ.L.F.+.Y K L T K.U.O.K  .! v j k < V.V.].V.0 w SXvX5X&X$X$X*X*X*X=XqX;.& k l Z ` _ G v G _ } I F p a.g.3.4.",
"q.&X<X=X=X;X*XJ.J.H.U R K L K %.U.Y.K.+./  .) b j N A.V.~.Q.W.3 w lXAXZXbX5X<X&X$X$X=X>X8XA.V.V.S.D o.n b b _ } I F p y.s.4.4.4.",
"&XD.J.L.K.G.O.O./ O.L Y R T H.L.K.U.( P _ ` x k < V./.~.!.[.~.w VXJXSXZXZXxX,X$X$X$X$X,X9Xe V./..XA.A x b G | K F p r.s.g.3.4.3.",
"I.U W W U R K ( O.K O.U.Y.F.L.J.o.U ^ ^ x k N A.V./.[.[._.(./.BXAXZXZXZXZXvX5X&X<X$X$X1X3Xq 4 W.{.).A.N x ` / F p r.s.3.3.3.3.3.",
"( F i i W U U H.L.L.-XY.U.O.( ` o.S k N A.A.V./.).(._._._._.'.HXAXSXZXZXZXZXyX5X&X$X$X&X,X#Xw ~._._.).A.D S F i r.s.g.3.3.3.3.3.",
"F W 6X6XD.H.L.-X;X*XH.T o.L ^ S k < q .XoXBXBXXX`._._._._._.1.BXAXAXZXZXZXZXZXvX5X,X,X&X$X@Xe ~._._._.}.A.V B t.s.3.3.3.3.3.3.3.",
"h t.tXq.$X;X;XL.F.+.( ` m N & +Xq 0 2 w [.XXBXCXBX X'._._._._.'.VXSXAXZXZXZXZXZXbX5X>X&X&X@X9X1.)._._.|.lXn.b.z.h.6.3.3.3.3.3.3.",
"l.x.0.q.%XJ.H.T ( / | m N S.+XoX[.6 2 1 6 [.oX XVXBX|.`.2._._._.1.OXSXZXZXZXZXZXvXcXxX5X&X>XeX.X_._.'.`.CX X<.v.b.k.j.3.3.3.3.3.",
"tXe.q.=XG.T ( / / _ n l S.oX).).[.[.7 1 1 6 (.(.`.|.BXVX X`.)._.'.^.OXeXbXcXcXvXvXZXZXyX6X>XeXw '._.`.kXXX'.8 1.<.v.k.4.4.4.4.4.",
"q.q.=XH.Y / | { _ n x k 0 7 ~.[._._.(.5 3 3 3 4 (.).XXVXBXCX|.(._.'.n.lXeX3X3X3X3XvXZXvX>X3XlX^.'.'.|.BX`.(.1 6 '.<.v.k.k.6.4.4.",
"$X=XH.O.| .._ G n b j < V.W.7 7 ~.(.{.[.[.6 3 3 1 6 /.`.|.CXBX|.`.).'.^.lXSXvXZXyXeXvXZX3XvXVX^.'.`.BX|.(.4 1 5 _.'.<.v.v.k.j.4.",
";XH.+./ / _ G b b x k A.!.Q.E.E.7 7 W.[.[.[.[.3 6 1 3 4 '.`.XXBXBX|.`.'.^.VXAXZXZXvXZXZXvXSXVX^._.|.BX}.[.3 1 5 [.E.8 2.<.v.k.j.",
"G.+./ _ G v v b b j < V.!.Q.Q.Q.Q.E.7 W.!.[.{.(.(.7 3 1 3 6 ).).|.CXVX X'.^.lXAXAXZXZXZXZXZXVX/.`.BXXX(.4 1 4 [.~.7 E.E.2.2.v.k.",
"..` _ H b b b b b C V.!.!.Q.Q.Q.Q.Q.E.7 7 W.[._.[.[.[.4 3 1 1 4 (.oXCXBX|.).1.VXAXAXZXZXZXAXVX^. XBX{.3 1 5 [.[.E.7 E.Q.E.2.<.v.",
"/ _ G b b b b x C < V.Q.Q.Q.Q.Q.Q.Q.Q.E.E.7 7 W.[.[.[.(.(.5 6 1 1 6 ).|.BXVX X^.OXSXZXZXZXAXVX^.lX}.6 1 7 (._.E.7 E.Q.Q.E.2.<.v.",
"{ H v b b b b x j S./.Q.Q.Q.Q.Q.Q.Q.Q.Q.Q.E.W.7 3 4 ~._._.[.].6 2 1 4 ). XVXVX}.;.eXZXZXZXAXVX^.lXw 2 6 [._.~.7 E.Q.Q.Q.E.E.<.uX"
};
