/* XPM */
static char *_72592824f744279badab7ee3bdcd3b3q9A6coQMwN9QSvjm[] = {
/* columns rows colors chars-per-pixel */
"64 64 256 2 ",
"   c #0B0508",
".  c #180907",
"X  c #0B0A14",
"o  c #160F15",
"O  c #1B151C",
"+  c #181419",
"@  c #240905",
"#  c #35060A",
"$  c #281504",
"%  c #261819",
"&  c #391315",
"*  c #331F0A",
"=  c #2E201A",
"-  c #362A1E",
";  c #1C1B24",
":  c #1C1C2C",
">  c #181623",
",  c #1D1D31",
"<  c #261C27",
"1  c #261E31",
"2  c #331E27",
"3  c #24232B",
"4  c #2C242B",
"5  c #2A2629",
"6  c #37252B",
"7  c #39312B",
"8  c #2D2433",
"9  c #2D2C32",
"0  c #262638",
"q  c #332634",
"w  c #3B2B34",
"e  c #342C3B",
"r  c #3B2E3C",
"t  c #352834",
"y  c #35353B",
"u  c #3C333D",
"i  c #37383D",
"p  c #393A3F",
"a  c #383334",
"s  c #2F3034",
"d  c #1F2034",
"f  c #451412",
"g  c #4E3013",
"h  c #511623",
"j  c #462625",
"k  c #49352A",
"l  c #452D34",
"z  c #47363A",
"x  c #553839",
"c  c #52322A",
"v  c #663C37",
"b  c #73322E",
"n  c #722326",
"m  c #524536",
"M  c #6B4538",
"N  c #774B35",
"B  c #7C603F",
"V  c #362E41",
"C  c #3C2F41",
"Z  c #3C3142",
"A  c #3B3C41",
"S  c #39354B",
"D  c #3D3A54",
"F  c #3C3753",
"G  c #2F2F42",
"H  c #423443",
"J  c #463B48",
"K  c #423C54",
"L  c #453D55",
"P  c #5A3D41",
"I  c #752F40",
"U  c #4A474A",
"Y  c #594548",
"T  c #4B445C",
"R  c #494457",
"E  c #575659",
"W  c #5A4F52",
"Q  c #684948",
"!  c #774A45",
"~  c #775249",
"^  c #675959",
"/  c #775A59",
"(  c #674E50",
")  c #7D655E",
"_  c #6F614F",
"`  c #4A4663",
"'  c #4D4B65",
"]  c #4E4B69",
"[  c #524D66",
"{  c #55536D",
"}  c #59556D",
"|  c #5B5666",
" . c #555573",
".. c #5A5673",
"X. c #5B5975",
"o. c #5B5B7B",
"O. c #575978",
"+. c #665A6B",
"@. c #615D7B",
"#. c #635B75",
"$. c #765963",
"%. c #696668",
"&. c #7A6668",
"*. c #6A6678",
"=. c #746A76",
"-. c #79777A",
";. c #78716B",
":. c #874A35",
">. c #864C2C",
",. c #A2673D",
"<. c #804F45",
"1. c #855849",
"2. c #8A5C55",
"3. c #935953",
"4. c #965049",
"5. c #B14C52",
"6. c #8B6558",
"7. c #94685B",
"8. c #977152",
"9. c #A3795A",
"0. c #AA714B",
"q. c #855E63",
"w. c #905865",
"e. c #876967",
"r. c #986A63",
"t. c #8C736A",
"y. c #9A7669",
"u. c #877677",
"i. c #9A7B78",
"p. c #826F71",
"a. c #A5766A",
"s. c #A67C73",
"d. c #B1706A",
"f. c #DE7F7B",
"g. c #8A1120",
"h. c #AF875C",
"j. c #988578",
"k. c #8C827E",
"l. c #A9847A",
"z. c #B5887A",
"x. c #AF8D69",
"c. c #CA936F",
"v. c #CCA572",
"b. c #E9AC7F",
"n. c #696987",
"m. c #737386",
"M. c #78778C",
"N. c #7C7B92",
"B. c #767693",
"V. c #6F7180",
"C. c #5C5C80",
"Z. c #907D88",
"A. c #878689",
"S. c #978886",
"D. c #888897",
"F. c #989597",
"G. c #958C95",
"H. c #A78B87",
"J. c #A49586",
"K. c #B4958A",
"L. c #A79698",
"P. c #B99B95",
"I. c #B48882",
"U. c #BBA399",
"Y. c #BFAC8E",
"T. c #8C8DA7",
"R. c #9797A9",
"E. c #9A9BB3",
"W. c #A79DA9",
"Q. c #B29EA9",
"!. c #A9A5A9",
"~. c #BCAAAA",
"^. c #A6A7B8",
"/. c #B9B6B9",
"(. c #9FA0B4",
"). c #C99486",
"_. c #C8988A",
"`. c #C99D94",
"'. c #D38B88",
"]. c #D6B389",
"[. c #C6A398",
"{. c #D6B898",
"}. c #D1AB92",
"|. c #EDB289",
" X c #C8ABA1",
".X c #C8B5AB",
"XX c #D8B9AA",
"oX c #D6BDB3",
"OX c #C7B5B5",
"+X c #E8B7AF",
"@X c #EF959F",
"#X c #EAC289",
"$X c #F2C482",
"%X c #F0C68A",
"&X c #E9C696",
"*X c #F9D39C",
"=X c #F2C794",
"-X c #DCC3B9",
";X c #DEC9A6",
":X c #E6CAA7",
">X c #EAD3AC",
",X c #F8D4A2",
"<X c #FDDCAC",
"1X c #F5D3A6",
"2X c #E8C8B8",
"3X c #E7D3B7",
"4X c #F4D8B6",
"5X c #F6C4AB",
"6X c #FCE2B9",
"7X c #DFC495",
"8X c #BBBBC2",
"9X c #A4A4C0",
"0X c #C2BCC3",
"qX c #FFBFCD",
"wX c #C8C7CC",
"eX c #DBCBC6",
"rX c #CCCCD3",
"tX c #C7C9D5",
"yX c #CFD1D6",
"uX c #D7D5D8",
"iX c #D5CFD0",
"pX c #E4CCC4",
"aX c #E8D6C9",
"sX c #FCDDCC",
"dX c #F4D7C9",
"fX c #E6D9D5",
"gX c #F7DCD5",
"hX c #F4C7CC",
"jX c #FDE1CF",
"kX c #F8E4C6",
"lX c #FEE3D2",
"zX c #FEEAD4",
"xX c #FDE5DA",
"cX c #FEEADA",
"vX c #F3E5D8",
"bX c #FFF3D5",
"nX c #FFF4DC",
"mX c #FFFBDD",
"MX c #FFFAD4",
"NX c #EFE0CE",
"BX c #DCDCE3",
"VX c #EAEAEC",
"CX c #E6E6E7",
"ZX c #FBEAE5",
"AX c #FFFBE4",
"SX c #FEF5ED",
"DX c #FFFDEC",
"FX c #FFF3E5",
"GX c #FEF6F2",
"HX c #FFFCF4",
"JX c white",
"KX c #FEFEFF",
"LX c #FDFEFD",
"PX c #FFFEFE",
"IX c #F5F4F7",
"UX c #F3EEF4",
/* pixels */
"JXJXJXJXLXLXLXJXLXLXLXLXLXLXLXJXLXLXLXLXLXLXJXLXLXLXLXLXLXLXLXLXLXLXLXLXLXLXLXLXLXLXLXJXJXJXLXLXJXJXJXJXJXJXJXLXJXJXJXJXJXJXJXJX",
"JXJXJXJXJXJXLXHXHXLXLXLXLXLXLXLXLXLXLXLXLXLXJXLXLX^.*.m.m.n.n.m.m.n.m.m.m.*.^.LXLXLXLXLXLXLXLXLXLXJXJXJXJXJXLXLXJXJXJXJXJXJXJXJX",
"JXJXJXJXLXIXLXLXLXLXLXLXLXLXLXLXLXLXIXLXLXJXD.N.D.C. . . . . . .O. . . . . .@.D.N.D.BXBXuXuXuXVXJXJXLXJXJXJXJXJXJXJXJXJXJXJXJXJX",
"JXJXJXJXLXJXwX=.-.-.-.-.CXJXF.E | F.LXVXD.D.o. . .O.C.C.O.C.C.C.o.o.o.o.O.o.O. . .O.N.M.wXtXtXyXuXCXJXLXJXJXJXJXJXJXJXJXJXJXJXJX",
"LXLXLXJX/.A.%.3 9 9 9 9 -.A.s X X 5 D.8XT { o.o.o.o.O.C.O.C.C.O.o.O.o.C.o.C.C.C.o.@. .{ B.wXyXwXwXyXVXJXJXJXJXJXJXJXJXJXJXJXJXJX",
"JXJXJXwXE 3 s A p A p A 9 > + ; > , %.T.B.O.O.O.o.o.o.C.C.O.O.C.o.o.o.o.O.O.] ` o. .O.N.V.(.tXyXrXwXyXVXLXJXJXJXJXJXJXJXJXJXJXJX",
"JXJXwXU 9 A p i p y i i A z z % 3 -.^.E.^.m.B.o. .O.O.o.C.O.C.O.o. .O.n.B.B.n.' ] N.B.E.(.R.^.tXrXrXwXyXJXJXJXJXJXJXJXJXJXJXJXJX",
"JXJXE 9 A y p i y p i i i a Q Y *.^.E.E.N.(.9XB.n.B.C.C.O.C.O.C.C.n.n.T.^.^.9XD.{ D.(.(.E.(.R.^.tXrXtXyXVXJXJXJXJXJXJXJXJXJXJXJX",
"JXBXE y p i i i p y i i a k M j.W.E.E.M.D T.T.R.T.E.B.O.o.o.o.o.o.T.E.T.T.T.T.R.N.S T.T.T.T.R.R.^.tXtXrXrXLXJXJXJXJXJXJXJXJXJXJX",
"LXi 3 i i i i i i i y i a Q ~ i.W.E.M.V o.o.X.O.o.O.o.O.O.o.o.o.o.O.O.O.o.o.O.O. .F } ..X. .D.E.R.^.tXtXyXLXJXJXJXJXJXJXJXJXJXJX",
"LXA 9 A i i i i i i i i l ( Z.Q.N.X.[ F X.o.X.o.o.O.@.' D o.o.O.C.O.o.O.O.O.C.o.o. .S } o.X.o...N.E.(.yXyXLXJXJXJXJXJXJXJXJXJXJX",
"LXA 5 A i i i i i i i i & P G.Z...@.[ S o.o.o.o.C.C.C.` D @.o.O.o.o.o.C.C.O.C.O.o...S ..o.o.o.o.o.X.N.yXrXLXJXJXJXJXJXJXJXJXJXJX",
"LXA > s A i i i i i r < P / #.@.o.] K ..O.O.o.o.O.C.` L @.o.o.o.C.O.C.O.C.C.o.O.o...S } o.o.o.O.o.O.X.D.IXJXJXLXJXJXLXLXJXJXJXJX",
"LX9 X : s A A i A u < % ( +.#.X.@.' D @.o.C.o.o.O.C.L L C.o.o.o.O.C.O.C.C.O.o.o.o. .F ..o.o.o.o.o.o. .V.JXLXLXLXLXLXLXLXJXJXJXJX",
"LX8XA + : 3 3 3 3 < % H +.+.#.O.@.] D o.O.C.o.o.o.C.` K o.o.o.o.C.O.C.O.C.C.] ` o...S L ..C.o.o.o.o.o.*.L.GXHXLXLXLXLXJXJXJXJXJX",
"LXLXA X ; + > ; O O @ / +...@...o.' D o.O.o.o.o.o.o.` D o.o.o.o.O.C.O.C.C.O.` F @...V V ..o.o.o.o.X.X.| x P.SXLXHXHXJXJXJXJXJXJX",
"LXLXW.5 X 3 ; : + % k l +.X.o.o.o.[ F @.O.o.o.o.o.o.T L o.o.o.o.o.@.O.o.o.C.T K C.o.C C L #.C.C.#.@.X.R l v P.ZXHXLXLXJXLXLXLXLX",
"LXLXLXR.9   o o % k x . L #.o.o.o.' K #.O.o.o.o.o.#.T L C.o.o.o.o.o.O.o.C.@.` K #.` C H C L [ ` ] [ T w x l.M {.FXHXLXLXLXLXLXLX",
"LXLXIXLXF.m g g g 1..   9 T X.#.*.' F } o.o.o.o.#...K K ..o.o.o.o.C.@.O.o...L K [ C C V H V V V r V C r U ZXz.9.&XAXHXJXLXJXLXJX",
"LXLXLXDXmX;Xx.0.,.h..   e V T } { ` V S { } } } } K r V K ..} { { { ......L V C e H l L H H H C C C C e J aXAX{.h.{.bXAXHXHXLXJX",
"LXHXHXmX].h.N * c.8.. X q C C C V C C C C V Z Z C Z C Z C V C V C V C C C C C C H l H L.R r H r C C C l l / ZXAX].h.v.<XAXHXLXLX",
"LXHXAX}.c.N @ g 9.@ . ; r C C C C C C C C C V C r r r r H C C C H C C C C C C C r r P Z.P w r H C C C C c ~ gXSXmX].v.&X4XAXDXDX",
"DXAX].h.:XMX].h.h.$ < < V V C H H C C C C V C Z u u u r r l C C C C C C C C H C C r H 2 o t l r C C Z l j ~ 2.gXDXAX{.v.*X&X>XMX",
"mX4X].1XnXmX*Xc.8.% ; : V Z C r C C C C C e < O O O X W Z.q H C C C C C H q r r C r %   p.Y e H C C w W eX! ! dXHXHXbXkX6X#X%X*X",
"*X&X6XAXDXAX&Xv.OXO : : 1 e V C C C C C r C q 8 q O   4 J H r V C C H H q +.=.l Z % . e.P.( w C H J q U LX-X~ 7.gXHXDXGXAXkX%X$X",
"$X#XbXHXHXzX7X>XaX; : , : G Z V C C r C C H H H H w +     % H l H H H H 2 w.Z.& . @ e.[.`.P q C e < J 0XLXGX2X1.t.dXHXHXHXAX6X#X",
"&X4XAXHXDXkX#X6XeXX : , : 1 V S S C H V q q q q 6 6 x ) $.P % w q 6 l 2 P H.I.2.~ x s.l.`.H.P q +.W./.LXLXGXGXr.b 9.dXHXHXHXFXkX",
"4XmXHXHXAX6X#X,XvX=.d : , < 1 q q q q 8 < +.&.&.&.$.i.I.`._.P $./ $.$.( I.`.`.`.I.I.s.I / t.( 6 G.JXLXLXLXLXHX X3.b a.dXLXHXLXHX",
"HXHXHXHXbX<X#X*XDXCX> > , : < 2 1 1 1 < w Q.j.j.Z.i.i.d.a.Z.).`.`.`.`.}._.).).s.i.t.t.% . o 7 5 A.JXIXJXLXLXHXGXd.:.>.r.gXHXLXHX",
"HXLXJXDX4X#X$X,XDXCXE , 3 : Q L V H K H J i.= . @ . <.Z.a.d.r.c.'.).).).)._.z.a.r.# & P Y 5 < o =.IXJXJXLXLXJXHXK.:.:.>.i.HXLXJX",
"LXJXLXDX<X$X$X*XDXLXIX9 O l H.e.q ` @.#.} < % 7 z j f # x K.s.r._.)._.).).).`.e.# h I +XfXU > : q R.JXLXLXLXJXHXHX`.:.>.s.cXHXJX",
"LXJXLXDX<X$X$X*XDXLXIXA O l H.2.J @.O.@.} q O !.hXe.I n f f j K.`.`._._._.[.r.# h I I hXZXW + ; G T.LXLXJXJXJXLXLXGX).N >.y.GXLX",
"JXJXJXDX<X$X$X,XDXLXJXUXJ j Z.&.J C.C...#.G.2 OXUXw.f.@Xn n & k dXsXsXsXdXzXK.# 5.+XI gXGX&.< < , G G.JXJXJXJXJXLXHX[.N >.7.SXGX",
"JXJXJXDX<X$X$X,XDXJXJXLXZX/ s.q.J C.C...*.Q.H.gXIXr.d.f.g.5.+XH.sXjXlXjXjXlX2X3.:.+Xf.gXZXe.< : : 0 D.JXLXJXJXJXLXLXSX[.>.:.i.GX",
"JXJXJXDX<X$X$X,XDXJXLXLXLXvXi.x L C.o.o.#.=.Q.xXGX_.d.|.5.4.GXaXlXlXjXlXjXjXsX+X0.c.sXlXxX6.< 1 : 0 D.JXLXJXJXJXJXGXLX Xb >.7.SX",
"JXJXJXDX<X$X$X,XDXJXJXJXIXLXu.2 T C...o.C.#.L.gXHXgX|.f.f.+XxXzXjXjXlXlXlXjXjXsX+X5XcXlXxXe.2 : , : R ^.LXJXJXJXJXLXLXZXv.N 6.SX",
"JXJXJXDX<X$X$X,XDXLXLXLXLXLXiX%.L @.@.o.C.#.-.pXZXcX4X}.2XFXsXlXjXlXjXlX:X2XjXsXlXlXjXsXxXe.2 : 1 > d m.LXLXJXJXJXLXLXHXoX! -XIX",
"JXJXLXDX<X$X$X*XDXLXJXJXLXLXLXZ.H C.o.C.o.o.| uXZXgXlXxXzXjXsXlXjXlXjXlX2X2XlXlXsXlXlXlXpX( < : , : 0 M.LXJXLXJXJXLXLXHXfX XHXLX",
"LXJXJXDX<X$X$X*XDXLXJXJXJXLXJX/.#.[ ..` @.#.#.!.vXxXsXlXjXjXlXlXzXjXjXlXcXzXjXlXlXlXlXlXP.l > , , : 0 B.LXJXJXJXLXJXLXLXHXLXLXJX",
"LXJXJXDX<X#X$X*XDXLXJXJXJXLXLXJXW.q [ S [ [ [ L L.vXxXlXjXlXlXsXXXjXcXcX2X2XlXjXlXsXlXdX&.6 > > , : d m.LXJXJXJXLXJXLXLXLXLXJXJX",
"HXJXJXHX6X&X%X*XDXLXLXJXLXLXLXJX/.H V Z V V C Z J L.gXxXzXsXlXdXj.XX2X2Xz.U.zXsXjXlXdXH.t o A G : : S T.JXJXJXJXJXJXJXJXJXJXJXJX",
"FXHXJXHXAX6X$X*XAXHXLXJXLXLXJXHXLX8X4 H Z V r r H 8 i.fXaXxXzXlXjXs.r.7.XXzXjXlXlXaXS.% O 3 8XD.X A R.LXLXJXJXJXJXJXJXJXJXJXJXJX",
";XnXHXHXDX6X$X$X>XDXHXLXLXJXLXLXLX8Xt Z r C r J Z C z w &.ZXdXlXlXjXjXjXjXlXjXzXgXJ.7 4 O yXM.O S R.LXLXLXJXJXJXJXJXLXLXJXJXJXJX",
";XnXLXHXDXkX#X#X1XMXHXLXLXLXLXLXLXLX0X4 H C e uX=.8 Z a H x ( gXlXlXjXjXlXzX-X.XGXSXVXVXVXLXUXCXVXIXJXLXLXJXJXJXJXJXJXLXJXJXJXJX",
"FXHXLXLXLXAX6X#X#X,XAXHXHXLXJXJXJXJXJX0Xq t t J 8XM.9 H r l v a.a.a.a.a.2./ ~.HXLXLXLXJXJXLXJXJXJXJXJXJXJXJXJXJXLXJXJXJXLXLXJXJX",
"LXJXLXLXLXHXAX6X#X7X3XSXHXLXJXJXJXJXJXIXrXrXiX0XLX=.  8 > 2 e.2.2.3.3.3.Q / A./.JXIXLXHXIXLXIXLXLXJXJXJXJXJXJXJXLXJXJXJXJXLXJXJX",
"JXJXLXLXLXHXHXAXzXzXvXGXLXJXJXJXLXLXLXLXLXLXLXLXG.5 o > > 4 k y.r.r.a.i.k Q F.A./.LXLXJXLXLXLXHXLXLXJXJXJXJXJXJXJXJXJXJXJXJXJXJX",
"JXJXLXLXLXHXLXLXHXHXHXHXLXJXLXLXLXLXHXLXLXLXLXuXs X ; ; y a % - $.c j j w %.L.A.%.u.S.J.H.J.S.eXLXLXLXLXJXJXJXJXJXJXJXJXJXJXJXJX",
"JXJXJXJXJXJXJXLXHXLXLXLXLXLXLXLXvXeXpXpXpXeXL.F.A.9 + s A s p -.k.7 A p %.A.F.A.E   Q M I v v r.pXLXLXLXJXJXJXJXJXJXJXJXLXLXJXLX",
"JXJXJXJXJXJXJXJXJXJXJXJXLXLXHXZX-X X[. X.X[.o U /.A.A A i A G.CX/.F.F.!.A.-.F.F.%.z Q r.r.3.d.! e.fXLXLXLXJXJXJXJXJXJXJXJXLXJXLX",
"JXJXJXJXJXJXJXJXJXJXJXJXJXHXZXoX-XcXzXzXzXxX%.+ %.BXD.5 s %.IXS.~.eXF.-.F.A.k.-.%.G.. e.r.2.3.9.I t.LXLXLXJXJXLXJXJXJXJXJXJXJXJX",
"JXJXJXJXJXJXJXJXJXJXJXJXLXLX.XoXcXsXsXjXjXlXFXz U BX!.A A -.fXk.~ Y.-XJ.k.F.S.W 7 p.4 p.i.M <.r.! t.ZXHXLXJXLXLXJXJXJXJXJXJXJXJX",
"JXJXJXJXJXJXJXJXJXJXJXLXLXGXoXoXxXlXlXjXlXlXzXW + E uX!.-.HXk.) _ :.N [.J.i.j.&.M = A.o OXe.! 7.r.! q.LXLXLXJXJXJXJXJXJXJXJXJXJX",
"JXJXJXJXJXJXJXJXJXLXJXLXHX.X-XzXsXlXlXlXlXlXsXxXW X E wXLXCXF.-X2X2.N 1.:.:.6.:.M . * . !.fXe.! r.! e.LXLXLXJXJXJXJXJXJXJXJXJXJX",
"JXJXJXLXJXJXJXJXJXJXLXLXHX.X2XlXlXlXjXlXjXlXgXZXW   -./.8XVXF.eXSXZXpX7.N >.0.%Xv.b @ . a uXvXt.<.<.e.HXLXLXLXLXJXJXJXJXJXJXJXJX",
"JXJXLXLXJXJXJXJXLXLXLXLXHX[.-XzXsXlXlXjXlXjXlXvXaX%.s A./.!.wXIXLXLXDX2Xc.,.0.*Xb.>.9.y.k m uXF.v 2.e.LXHXLXLXJXJXJXJXJXJXJXJXJX",
"JXJXJXJXJXJXJXJXJXJXJXHXoX2XsXlXlXlXjXjXlXlXlXlXmXk.+ A.IXuXIXLXLXGXAX{.].c.0.,.0.h.N B j.g m -XK.j t.LXLXJXJXJXJXJXJXJXJXJXJXJX",
"JXJXJXJXJXJXJXJXJXLXLXLXU.2XlXlXlXlXjXlXsXXXsXsXnX;.+ G.JXLXLXLXLXDXkX].:X4X].8.m B B * m x.m m .XZ.^ HXHXJXJXJXJXJXJXJXJXJXJXJX",
"JXJXJXJXJXJXJXJXLXLXLXHX X2XzXsXjXlXlXlXsXs.4XzXzX.X^ E 8XJXLXLXLXDX:X<XMXkXdX{.$ m 7Xh.k ;.x.m ( ~./.LXLXJXLXLXJXJXJXJXJXJXLXLX",
"JXJXJXJXJXJXJXJXLXLXHXLX[.2XxXlXlXjXlXlXdX7.XXsXsXFXF.+ %.JXIXHXDXlX:X6XAXaXaXNX%.m h.;Xm * Y.j.. =.JXIXJXJXJXJXJXJXJXJXJXJXJXLX",
"JXJXJXJXJXJXJXJXHXLXLXfXXXdXjXjXlXjXjXlXsX7.a.4XlXcXA.3 %.yXLXHXDX;X>XbXAXNX3XDXuX7 g ;Xk.g j.j.m ^ yXLXJXJXJXJXJXJXJXJXJXJXJXJX",
"JXJXJXJXJXJXJXJXJXLXGXU.aXlXjXjXjXjXlXjX+Xy.2.+XlXcXJ.z 9 E LXHXAX:XbXAXAXNX3XmXiXs m x.>XB $ z.J.= %.LXLXJXJXJXJXJXJXJXJXJXJXJX",
"JXJXJXJXJXJXJXJXJXLXSXU.dXjXjXjXjXjXzX2X6.c.a.z.3XxX2Xt.5 %.LXHXmX>X6XmXAXNX>XMXNXU i - Y.B * J.j.= ^ VXIXJXJXJXJXJXJXJXJXJXJXJX",
"JXJXJXJXJXJXJXJXLXLXSXU.dXlXjXjXlXlXzX2X7._._.7.XXcX2Xe.5 %.LXHXmX>X;XkXAXkX7X>XAXCXA 7 7XB * J.J.- s E LXJXJXJXJXJXJXJXJXJXJXJX"
};
