/* XPM */
static char *d010eb80078b48988802213bb0b72433A73MQc9eatqJenLx[] = {
/* columns rows colors chars-per-pixel */
"64 64 255 2 ",
"   c #050100",
".  c #0C0100",
"X  c #140301",
"o  c #1B0301",
"O  c #1C0B0C",
"+  c #1F0F10",
"@  c #230301",
"#  c #2B0401",
"$  c #2C0A02",
"%  c #230D0D",
"&  c #2B0D0B",
"*  c #270707",
"=  c #340302",
"-  c #3A0402",
";  c #330902",
":  c #3B0B02",
">  c #330D0B",
",  c #3A0A0C",
"<  c #2D120E",
"1  c #28100A",
"2  c #33130D",
"3  c #3A120C",
"4  c #3B1405",
"5  c #240E11",
"6  c #2C0E16",
"7  c #370D16",
"8  c #251214",
"9  c #2B1415",
"0  c #2B1917",
"q  c #261119",
"w  c #2D1319",
"e  c #2D1A1A",
"r  c #331314",
"t  c #3B1415",
"y  c #341916",
"u  c #3C1A16",
"i  c #33151B",
"p  c #3B151B",
"a  c #331C1D",
"s  c #3C1C1C",
"d  c #37201E",
"f  c #341E21",
"g  c #3D1C22",
"h  c #361628",
"j  c #381835",
"k  c #30112E",
"l  c #3A2122",
"z  c #3F2235",
"x  c #460807",
"c  c #570A07",
"v  c #481508",
"b  c #56140B",
"n  c #431514",
"m  c #441B15",
"M  c #43161B",
"N  c #421B1B",
"B  c #4B1A17",
"V  c #531A1D",
"C  c #571816",
"Z  c #4E0E15",
"A  c #680B05",
"S  c #790702",
"D  c #65140B",
"F  c #751408",
"G  c #671B17",
"H  c #771914",
"J  c #740F17",
"K  c #592406",
"L  c #47231A",
"P  c #582618",
"I  c #502A13",
"U  c #662518",
"Y  c #752919",
"T  c #663618",
"R  c #78341A",
"E  c #682D08",
"W  c #431C23",
"Q  c #4B1D24",
"!  c #4A1F29",
"~  c #451B25",
"^  c #551D25",
"/  c #451C35",
"(  c #4D172B",
")  c #621E24",
"_  c #432324",
"`  c #4C2325",
"'  c #46222A",
"]  c #4B222B",
"[  c #4B2A29",
"{  c #542224",
"}  c #5C2324",
"|  c #54242B",
" . c #5B252B",
".. c #5A2A2B",
"X. c #492339",
"o. c #5B2A34",
"O. c #5C2E39",
"+. c #562932",
"@. c #5B3234",
"#. c #5B352C",
"$. c #632223",
"%. c #63252B",
"&. c #6A2429",
"*. c #642B2C",
"=. c #6A2B2C",
"-. c #6C2625",
";. c #762A26",
":. c #6B342A",
">. c #632B34",
",. c #622E3B",
"<. c #6A2D34",
"1. c #64323D",
"2. c #6C333C",
"3. c #683333",
"4. c #723135",
"5. c #73343B",
"6. c #7A3838",
"7. c #77342C",
"8. c #744638",
"9. c #75492F",
"0. c #74431C",
"q. c #452143",
"w. c #592D46",
"e. c #6B3541",
"r. c #673742",
"t. c #763B46",
"y. c #411F40",
"u. c #7D434C",
"i. c #794D4B",
"p. c #880E01",
"a. c #990C0A",
"s. c #871509",
"d. c #971409",
"f. c #8C1A15",
"g. c #981A14",
"h. c #A71807",
"j. c #B51608",
"k. c #AC1A14",
"l. c #B41812",
"z. c #AC0809",
"x. c #89281A",
"c. c #98261A",
"v. c #8F2E13",
"b. c #A62419",
"n. c #B2310F",
"m. c #853A38",
"M. c #8C392D",
"N. c #AD3A2D",
"B. c #C61711",
"V. c #D01E1C",
"C. c #C62718",
"Z. c #CA3819",
"A. c #CE2E18",
"S. c #C93925",
"D. c #D42923",
"F. c #E33931",
"G. c #87462B",
"H. c #894638",
"J. c #944839",
"K. c #89563A",
"L. c #97573B",
"P. c #905A27",
"I. c #B05332",
"U. c #95572A",
"Y. c #D54826",
"T. c #CB5031",
"R. c #EB6B3B",
"E. c #E84E38",
"W. c #843E44",
"Q. c #884547",
"!. c #964A49",
"~. c #8A5842",
"^. c #995846",
"/. c #814651",
"(. c #944A51",
"). c #955858",
"_. c #AC5650",
"`. c #96684A",
"'. c #986A54",
"]. c #8F6848",
"[. c #A9684A",
"{. c #AE6E53",
"}. c #8A5862",
"|. c #9A6362",
" X c #B76B64",
".X c #AC7364",
"XX c #B47A66",
"oX c #B77C76",
"OX c #A66F6E",
"+X c #CA5A45",
"@X c #D65E4E",
"#X c #DD795D",
"$X c #CE6952",
"%X c #FD7757",
"&X c #ED6E4A",
"*X c #D07A6D",
"=X c #F47A66",
"-X c #E35D40",
";X c #B78758",
":X c #BA9053",
">X c #B2876F",
",X c #C29458",
"<X c #C88B5C",
"1X c #FB8757",
"2X c #ED935B",
"3X c #C68768",
"4X c #C89769",
"5X c #C88A7B",
"6X c #D49979",
"7X c #D68A72",
"8X c #E88867",
"9X c #FF9966",
"0X c #FD9876",
"qX c #EE8D73",
"wX c #DDB777",
"eX c #D6AC70",
"rX c #F0AF7C",
"tX c #FFA35C",
"yX c #E9C577",
"uX c #BD8C82",
"iX c #AC898A",
"pX c #CE988E",
"aX c #D9A996",
"sX c #DDA98D",
"dX c #E8A787",
"fX c #EEB989",
"gX c #F2BC89",
"hX c #E4AA95",
"jX c #F7B898",
"kX c #F1B08D",
"lX c #D1AFAC",
"zX c #E5AAA3",
"xX c #F1B7AD",
"cX c #E59788",
"vX c #F7CA8B",
"bX c #FADB88",
"nX c #FAC69A",
"mX c #FBD895",
"MX c #EFC590",
"NX c #FCE388",
"BX c #FFE697",
"VX c #FDCCA3",
"CX c #FBC8A6",
"ZX c #FCD2A6",
"AX c #FED4A9",
"SX c #F4D0AE",
"DX c #FFD8B8",
"FX c #F7C8B2",
"GX c #FFE3A0",
"HX c #FFD6C7",
"JX c #FFCDC5",
"KX c #FFEADB",
"LX c #FFE2C6",
"PX c #FFF6F5",
"IX c #FFF0E8",
/* pixels */
"        . . X X X X o * @ '.sXK :.:.:.:.=.U V T mXwX[.T 4 y 4 4 T T P.4X>XK.I d e e d e d a e d y d d d s y 0 y y < @ X X o o @ ",
"          X X X X o o @ # `.6XK U *.:.:.3.} P E bXwX:X{.m 2 u T :X4X,X;X`.T d a e f f e a e d d d y y a y y y u y u 2 9 & o o @ ",
"      . X . X X X X o @ $ '.6XK C } 3.:.3...K P bXyX:X:XI 1 I `.vXbXfX4X9.I 2 d e f e l a e d d s s d u t u u u n n m m t $ @ @ ",
"        . . X X X o o @ # `.6XK P  .:.=.:.$.P T mXwX:X:Xm 2 0.4XyXvXyXdX9.d y e l e f e a d d d d d N L u u m L E U E C b x x x ",
"      . . X X X o X o @ @ `.6XK P B P *.:.*...E mXeX:X:XI I P.4XyXbXeX0.u d y e e f l e d s s g N L N p N m m R <X2X2X$XS f.g.g.",
"    . . . X . X X X o o @ '.6XK P L ` 3.*.:.#.P mXeX:X4X4 9.;X,XvX4X9.9.y y d e l e e l a d s N L ` N u N B v v.tXtXR.n.d.k.l.B.",
"    . . . X X X X o o @ @ ].5Xv m u N ` L ` L m >Xi.9.i.I ].>X;XeX[.0.[ d e a a e l a a s s d L _ d N M m v R I.tXR.Y.B.j.V.D.B.",
"  . . X X X X X o o @ $ : ~.{.: > > > > & < & & . o 1 1 #.9.].].].i.#.1 d e a e a d a d s d d N N u m N N v U.9X1Xn.Z.F.j.F.D.V.",
"  .   X X X o o o @ # # XXK.: 4 2 & & < & & 1 1 1 & % 1 1 $ 1 $ $ $ 1 + e e f f e f e d d d N g L p u N L v I.1XB.j.%X0XY.j.n.E.",
". . X X X o @ @ o 9.>X>XH.T m M ` ` ` _ _ u y y y a 0 O O O O O O O O O + + + 8 f f f d u s d L d u u u m v I.2Xj.Z.T.R.1Xh.Y.%X",
"X X X X o o ; 9.9.`.XX{.P m L | @.@.+.#.[ _ d d l a e 8 8 8 8 8 8 + O O O O O O + 0 0 0 d d d L s u p N m v v.+XY.R.Z.Z.-XI.&X1X",
"X X o @ 3 v T sXsXL.x v L s L ..[ [ [ [ d a y a a a e d e d l f a 8 + + + + O + + + + + a s s d y u m n v b F n.tX%XY.j.h.1X9X&X",
"X o @ # .XdXXXv v v 4 3 2 2 < < & < 1 % % 5 % 5 a d e l a e a e e a e e f e 0 O + + + + + + e d s p m Z b A I.tX1XE.S.E.9X9XR.T.",
"X o u OX9.R U : 2 2 < < 1 < & & & % * % % O % O 8 5 5 + 5 0 f f f f f f f a e e 0 0 + O + 1 1 0 & t B U G A I.1XZ.Z.%X1Xn.1XY.h.",
"X o v sXU - ; 2 < 1 < < < r 3 r r t p i i i i i 6 6 5 5 5 5 q 8 0 8 0 f e f a f e d e 0 0 + 1 1 & r m C Y S I.1Xj.A.&X%Xp.0X&Xj.",
"X o v .X:.v 4 2 < < < 2 > t N N p _ | ] ] | ] ' g i a i g q % 5 + O 8 e e e e e e e d f d 1 1 8 & & & x E A N.-XA.B.C.n.h.0X%XZ.",
". X @ # .X~.; t < < r 2 ; B  .| { | ! ! ] ] ! ! W ' ' ' ' ' ' ' i i 6 % O O q f a e f a s f a i % & & > > x c v.=XS.z.l.F.F.F.F.",
"X X o @ v U { 4 > 2 3 3 '.~.^ | | ` | ! ] ! ] ! ! ' ' ' ] ' ] ' W ' l f 9 w 8 O 8 5 q f f f i 0 w 0 q 1 & $ v F c.p.a.z.D.V.B.B.",
"X X X o o > L n 3 t , , (.H.^ | ^ | ! | ! ] ! ' ! ' ' ] ] ! ' ! ' ' ' ' g g g 9 5 5 5 0 0 0 0 w y y 0 1 9 x Z D A A S a.z.l.z.z.",
". X . X X o # u 3 , v P U -.%. . .| | | | ! ! ! ! ] ! ' ] ! ] ' ] ' ' ! ] ] ' ' a g 0 5 % O 5 0 w w e y t Z C b b c A J a.a.a.a.",
". . X X o o o @ o $ T 6XW.m.4.5.5.2.1.2.r.+.Q ! ! / ! ] ! ] ] / ] ] ! ' ' ' ! ' ' ' ' ' a p w % % 0 e y r m C C ( x C J S S S S ",
". X X X o o o o @ @ K kXJ.;.e.e.2.2.<.,.+.+.O.O.O.O.O.O.O.| ~ ~ ' ] / ] ' ] ] ! ] ] ] ] ~ ' g i i 1 & 9 y p n M 7 7 Z Z J N.N.N.",
"X X X o X o o * @ T {.fX^.m.m.5.5.2.2.2.| +.1.,.O.r.r.,.O.O.| +.] ! ` ' ' ! ' ] ] ' ] ] ] | ] W a r 9 r r r i h j k 7 M D x.$XqX",
"X X X o o o @ $ @ `.vXfX_.m.4.5.5.2.2.2.^ +.,.,.,.,.O.,.1.,.r.O.] ] ] ] ] ! ] ] ] ] ] ] ] ] ] ] p W p p < 9 h h / j h t Z c $X0X",
"X X o o o @ $ $ @ ].vXmXL.m.4.t.5.2.2.2. . .1.,.,.,.1.,.,.r.,.O.] o.O.O.] ! ! ] ] ' ] ] ] ] ] ] ] ~ M M M Q ( X.X.g a t n G f.k.",
"X o o o @ @ @ $ $ `.mXvXL.m.4.5.5.5.5.2.^ %.1.O.1.,.O.1.,.,.,.r.| t , > > & $ 7 ] ] ] ] ] ] | | +.^ Q ~ Q M }.iX( p < r p Z J f.",
"o o o o @ @ $ $ $ '.GXmX_.W.W.W.5.5.2.=.).W.>.,.,.,.r.O.,.1.+.~ 7 p Q Q ~ p 7 p ] ! ] ] | ] | { +. .( B ( n OXlX^ n r & i 7 M ( ",
"o o o @ @ # $ 4 K ;XZXwX_.!._.(.W.4. .C  XQ.} 1.,.,.,.r.,.e.( , V >.1.1.r.+.| ] | ] ` ] | | |  . . .^ B ^ 5.uXaX*.B u r 6 k ( k ",
"X o @ @ $ $ ; : 4XmXfXK.^.!.(.!.(.$.- x x - Z 3.,.,.,.r.O.,.,.2.pX!.%.r.1.] ] ] 1.| ] ] | | |  .^ %.%.%.V aXDXaX*.V N s 6 X.j k ",
"o O o $ * $ : : eXBXfXL.!.!.(.W.!.t.=.C  X*X(.x e.u.t.O.,.O.>.4.*XJ.%.e.r.| ] | 1.1.+.] | |  . .>.%.%.%.C aXDXaX:.%.` g 6 j j k ",
"$ @ $ $ $ ; ; : eXGXMXL.^.!.!._.(.t.&.$.*XqX XZ t./.t.t.t.t.e.4.*X X4.n Q p p t M >.e.>.+.^ +. .^ %.%.%.$.aXDXsX*.*.{ p q z j j ",
"@ $ $ $ ; : v T wXBXfXL.!.!.!.W.(.4.^ G $X*X X&.Q.u././.t./.t.5.*X$X=.# # # # # = ( o.%.( %.%.%.%.%.>.&.:.aXDXaX*.*.{ g i z j k ",
"@ $ = ; 4 $ T mXbXBXvX^.m.m.W.m.(.6.^ } _._.!.V t.W./.u.u.u.t.<.|.) * & & * # , - = = , x ^ &.) %.%.%.%.=.aXFXaX<.<.+.~ W 6 k j ",
"$ $ ; : : 4 E NXbXBXfXG.m.m.m.5.W.) x x Z c ) |.t.w.t.u.u.u.u.>.x ).iXiXiXaX|.Z G x = - x x c Z %.%.%.>.=.-.>XJXzX2.^ o.~ 7 j y.",
"; ; : : : 0.,XNXyXBXfXG.m.m.W.6.) Z - # # # x >. .O.r.e.e.e.r.1.M OXlXlXlXoXM.A J c =.).x x Z ) e.%.%.%.=.C 8.5XJXpXu./ / / y.q.",
"= : : x T :XBXyXyXNXfXM.m.m.;.;.c x n #.@.B = - n | o.O.r.r.O.r.w.iXlXlXlX6.J _._.G _.zXx c ) W.e.>.%.%.&.^ ) 6.pXDXpXt./.w.y.y.",
": : v b eXNXyXNX:XwXvXG.m.;.A c x - #.lXlX}.C &.x Z } 1.r.r.O.O.z iXlXlXzX6.'.KXKX!.!.pXZ ^ >.5.e.&.%. .%.( } =.-.aXxXxXxXt.j j ",
": : K wXNXNXNXBXP.,XkXG.m.m.;.c c = u.IXPX}.m.JXXXaXuX4 #.@.r.r.q.lXPXIXIXuXpXHXHX*XM.c &.^ %.e.e.e.>. .^ ^ ^ =.*.6.u.6.e./ / y.",
": :.,XNXNXNXyX{.G.#XkXG.m.m.6.&.&., @.PXPXuX.XLXdXCXCX>XuX8.s [ l i.lXPXIX.XM.+X_.#X#X!.4.,.,.e.5.e.&.^  .Q ^  . .}  . . .| / j ",
"0.:XBXNXNXyX<XE R [.<XM.m.m.6.6.t.B u.HXIXpX[.7XfXVXAXSXLX>X8.i.i.i.>XIXKX.Xc.g.g.$X=X$X=.1.e.1.e.e.w.%. .M Q  . . . . . .+./ j ",
"NXNXbXbXbX;XE x.;.R x.J.m.6.6.5.5.4.Q.7XKX.Xb E jXAXZXZXSXAXDXDXLXLXSXSXSXCXkX8X9X=X_.&.^ O.e.e.2.e.e.1.| W Q  ...|  .|  .| q.q.",
"bXmXNXmX[.G.R ;.;.;.J.dX!.6.4.2.5.=.H.cX5XcXjXjXVXAXAXAXAXAXZXZXSXGXZXSXAXVXjX0X#XqX X&.^ O.r.,.r.e.e.1.+.| | |  .+.+. . .o. .X.",
"[.{.{.[.G.Y 7.;.;.Y J.jX!.7.4.5.2.2.6.!.hXAXAXAXAXAXAXZXAXZXZXZXAXZXGXSXAXAXnXkXkX XW.,.O.,.r.e.1.e.e.1.Q | | | .. . . . . .(.OX",
"v.E E Y ;.;.;.=.=.$.T XXH.7.5.5.2.<.<.:.5XxXAXAXZXZXZXVXnXZXAXAXAXAXAXZXVXAXnXdX7XH. .,.,.r.,.,.,.1.1.o.M ] +. . .o. .o.>. .oXzX",
"H.Y v.R ;.=.*.%.*.n @ # ;.6.4.5.2.2.<.2.P >XAXAXZXAXVXMXfXnXZXZXZXAXAXAXZXAXnXdX;.;.>.! 1.1.,.r.e.r.+.! | +.| +. . . .%.%.) oXzX",
"# ~.fXcXH.*...; & * o # uX.X<.5.2.1.>.^ oXjXAXZXZXAXAXVXjXeX6XAXAXZXAXAXZXAXVXhX XQ.,.1.1.e.r.1.r.+.] | ^ ~ !  . . .>.%.>.) oXzX",
"@ L 8.8.B t 2 o o o o @ 8.u.2.1.,.1.,.>.6.oXjXAXZXZXZXAXnXfXjXAXZXAXAXAXAXVXkX$XQ.5.3.1.r.r.1.1.+.~ g ~ ~ W ~ Q o.o.o.%.&.%.oXzX",
"o @ @ o o o X o X X X o & N o.o.2.,.1.2.C 8.XXhXSXAXAXAXAXAXAXAXAXAXZXnXMX6X{.!.:.1.1.1.O.O.O.+.~ i i i p M M ~ ! |  . .<.&.oXzX",
"o o o O o X X X . . X X 1 9 t ] O.O.r.O.1.m V '.zXSXZXZXSXAXZXVXCXnXjXrX7XH.} o.@.1.r.O.] ] ! ! h i a p p s ~ p 7 p !  .%.^ XXhX",
"X X o X X X X O O . . + 0 0 p ' ! ] ! ] s p , # @ 8.6XAXAXAXAXCX8X8X#X+X$XD @ * @ ~ | | ] ] ] ' s i i p p s p t p * @ >  .C XXCX",
"X O X o X X X .   X % 0 0 0 i ' ' ! ! ' i i r 5 X $ :.7X#X#X8X#X$X&X@X@X$XG @ = '.2.| ] ] ] ! g i p h i s g p 7 p o o @ > = {.FX",
"X o o o @.l X X X + 0 e 0 y W ' ! ] ' ' h i a w o @ F [.+XT.I.N.T.N.S.T.I.F v 8..X4.| ] | ] g g g s g W W N p r 7 @ o @ * # '.CX",
"o o ; : >Xi.X X % 0 i 0 9 g ] ! ] ' ' ' h i i 9 o B M.+X+X+XI.S a.a.d.h.k.s.^.5XP { | ] ] g p g ] | ] +.X.~ p 7 p @ o @ * @ '.CX",
"@ @ v 6XP @ o % 9 w y 9 i g ] ! ] ' W i w i i i # U x.S +Xb.S f.k.k.l.l.k.@X{.H %.| +.] p ' ] ] ] ] | ] | p i 7 r @ o o @ @ '.CX",
"@ :.,XrXP @ & 0 y y y r W ' ] ] X.] g w i i i p x G g.a.@Xb.s.k.k.l.l.l.a.N.M.$.} | | ] ' ] +.] X.] +.] W p 7 i i @ o o @ @ `.CX",
"@ K.kX{.I $ y y y e 9 y ] ] ! ! ' ' ' h e i i p B ;.c.g.N.b.h.k.l.l.l.l.T.x.G %.| | | | +.] ] | ] | ' l a i w i i @ o o @ @ '.nX",
"o K.qXE v 3 i y e y r p ` ] Q ] ! ' g w i i p i M H c.c.S s.k.l.l.l.l.b.=XM.) %. .| | | ] ] ] ] ] ' g 9 6 6 i i i * o o @ @ `.jX",
"# K.qXv.b t t t r r t ` | | ` ] ' g w % w w a _ = b g.k.S f.b.k.k.h.a.s.x.) )  . . .| | ] ] ] ' a 5 5 q 6 6 w i i 0 % o O o '.xX",
"= J.qXx.Y ^ ^ $.^ { {  .| | | ] g 6 5 w f i i s = C f.f.S s.g.d.g.d.n.$Xx.-.&. .^  . .| | W l _ 0 q 8 + q 6 w w w i O X X o s #.",
"K.L.L.Y -.=.&.&.$.%. .{  .Q W W i 6 6 f i i p g $ b H F F H f.d.s.F I.qX;.-.&.%. . .| Q ~ w a f 0 e 8 5 q q 6 6 6 i % . X X X o ",
"rX].: v P &.&.%. .}  .| { N p w i a f i p N L d & n D A F H H Y D b M.*X;.&.&.&. . .Q i 9 % 1 0 0 8 e 0 5 q q q w q O . . X X X ",
"7.K B N n { =.%. . .} { p p i i i w w w +.` s N $ x G f.A D G b : : b Y H &.&.%.%...g 9 q % 8 w 0 0 e l q q q q q q O   .   . . ",
"P L m m p m V %. .}  .{ M 6 5 % 0 0 0 9 t ^ | N = C x.f.G v : u 3 : b -.&.&.&.%.%.N i 8 0 % 5 y w a l l + 5 q q q q 8 + . . . . ",
"L m u s u r , =.^  . .| ~ 0 % 5 0 8 0 w m } o.M - ) c.s.D x 2 2 d 3.6.&.&.&.&.$. .N r q 9 8 y a y l l f O 5 q q q q q 8       . "
};
