/* XPM */
static char *_647457040455[] = {
/* columns rows colors chars-per-pixel */
"64 64 240 2 ",
"   c #050402",
".  c #1B1A1F",
"X  c #282A2A",
"o  c #2B2C34",
"O  c #373639",
"+  c #313136",
"@  c #161D2F",
"#  c #2B3546",
"$  c #333D4B",
"%  c #3B3D4A",
"&  c #373A44",
"*  c #363C53",
"=  c #423F45",
"-  c #433E54",
";  c #3D424B",
":  c #3D4346",
">  c #3E4A5B",
",  c #3C4556",
"<  c #44444B",
"1  c #4A494D",
"2  c #414648",
"3  c #434553",
"4  c #444A54",
"5  c #4C4B53",
"6  c #41475A",
"7  c #434C5C",
"8  c #4B4E5B",
"9  c #484651",
"0  c #504E57",
"q  c #4C5153",
"w  c #4C525D",
"e  c #475459",
"r  c #54545C",
"t  c #59565C",
"y  c #5C5B5E",
"u  c #565456",
"i  c #524E4F",
"p  c #655957",
"a  c #68544E",
"s  c #5A615A",
"d  c #6B615D",
"f  c #7D6A5B",
"g  c #454D61",
"h  c #4A4D63",
"j  c #465264",
"k  c #4C5464",
"l  c #4C5569",
"z  c #4E5A6C",
"x  c #47586A",
"c  c #545462",
"v  c #585662",
"b  c #545A64",
"n  c #5B5C65",
"m  c #51566A",
"M  c #545C6C",
"N  c #5C5D6B",
"B  c #545C71",
"V  c #595F72",
"C  c #525A75",
"Z  c #615E63",
"A  c #615E6B",
"S  c #63576B",
"D  c #615E71",
"F  c #5D6265",
"G  c #5C626D",
"H  c #59636B",
"J  c #5C6474",
"K  c #5D6479",
"L  c #5D697B",
"P  c #586575",
"I  c #636266",
"U  c #6C6563",
"Y  c #64646C",
"T  c #69666B",
"R  c #656B6D",
"E  c #6A696D",
"W  c #6C6966",
"Q  c #726C6A",
"!  c #776A67",
"~  c #646472",
"^  c #696672",
"/  c #636A75",
"(  c #6C6B75",
")  c #63667A",
"_  c #646C7B",
"`  c #6C6D7A",
"'  c #6A6778",
"]  c #716E73",
"[  c #716F7A",
"{  c #756B77",
"}  c #6B7275",
"|  c #6B727C",
" . c #69727A",
".. c #727176",
"X. c #7D7575",
"o. c #74747C",
"O. c #79767C",
"+. c #75797D",
"@. c #7B7A7D",
"#. c #7E7A76",
"$. c #6E706D",
"%. c #8E715B",
"&. c #82726C",
"*. c #837B7A",
"=. c #837875",
"-. c #7F837E",
";. c #88817C",
":. c #92867D",
">. c #AB8E72",
",. c #5E6982",
"<. c #646C82",
"1. c #6A6E81",
"2. c #666C88",
"3. c #667183",
"4. c #6C7483",
"5. c #6C7589",
"6. c #6D7A8B",
"7. c #6F7883",
"8. c #747482",
"9. c #797682",
"0. c #747A84",
"q. c #7C7B84",
"w. c #71778A",
"e. c #747C8C",
"r. c #7C7D89",
"t. c #7A778A",
"y. c #747C91",
"u. c #7A7F93",
"i. c #787D99",
"p. c #716E81",
"a. c #817F84",
"s. c #817E8A",
"d. c #867B87",
"f. c #7D8284",
"g. c #7C828C",
"h. c #788289",
"j. c #758294",
"k. c #7C8493",
"l. c #7E8499",
"z. c #78899B",
"x. c #7B90A6",
"c. c #828185",
"v. c #8C8483",
"b. c #83838C",
"n. c #89868B",
"m. c #838A8D",
"M. c #8A8A8D",
"N. c #878B83",
"B. c #958B85",
"V. c #938B8A",
"C. c #9A8A88",
"Z. c #89918D",
"A. c #9B928C",
"S. c #92938A",
"D. c #858592",
"F. c #898692",
"G. c #848A94",
"H. c #8B8B94",
"J. c #81879A",
"K. c #848C9B",
"L. c #8B8D99",
"P. c #888598",
"I. c #918E93",
"U. c #918E9A",
"Y. c #9A8F97",
"T. c #879095",
"R. c #8B9195",
"E. c #8C929C",
"W. c #8B959C",
"Q. c #929295",
"!. c #9B9493",
"~. c #93939C",
"^. c #9A959B",
"/. c #9A999D",
"(. c #949A9B",
"). c #A5988A",
"_. c #A29A94",
"`. c #A59C9B",
"'. c #AA9B9B",
"]. c #A49997",
"[. c #B19D9C",
"{. c #ABA49C",
"}. c #A9A397",
"|. c #B3A399",
" X c #858CA0",
".X c #888FA1",
"XX c #8C93A3",
"oX c #8A96A7",
"OX c #9495A2",
"+X c #9996A2",
"@X c #949AA4",
"#X c #9C9BA4",
"$X c #939BAC",
"%X c #9B9DAA",
"&X c #9097A9",
"*X c #999EB0",
"=X c #918EA1",
"-X c #A19DA3",
";X c #A19FA9",
":X c #AA9FA5",
">X c #9DA2AC",
",X c #99A2A5",
"<X c #99A4B2",
"1X c #A2A1A5",
"2X c #A4A3AC",
"3X c #ABA9AE",
"4X c #A9A6A7",
"5X c #B2A4A2",
"6X c #B3ACA3",
"7X c #BAACAB",
"8X c #B7A9A9",
"9X c #B7B1AA",
"0X c #A4A5B1",
"qX c #A9A7B1",
"wX c #A4AAB4",
"eX c #ACABB3",
"rX c #ABADBA",
"tX c #A4ABBD",
"yX c #B3AEB5",
"uX c #AFB1BC",
"iX c #B3B2B4",
"pX c #B4B3BD",
"aX c #BBB6B9",
"sX c #C2B4AC",
"dX c #C8B9B8",
"fX c #C0ADA6",
"gX c #BBBCC4",
"hX c #BBBCC9",
"jX c #B4B5C2",
"kX c #AEB4C4",
"lX c #C9BEC6",
"zX c #BEC1CC",
"xX c #BAC1D3",
"cX c #C9C7CB",
"vX c #C6C5CA",
"bX c #D5C9C6",
"nX c #C6C7D0",
"mX c #D8D4D9",
"MX c #CDD0D9",
"NX c #EBDDDA",
/* pixels */
"hXhXOXhX%XtXjXrXjXhXrXL.P.#X%XL.+X+X{ U.jXU.~.%XD.t.0.D.XXL.L.OX` r.(.2XiX6X}._.|.}.}.`./.(.S.S./.aXlXyX3XdXpX5XyX1XQ.^././.^.H.",
"wXnX&X%X0X0X%XOXrXjXtXL.D.@X%XL.U.D.8.U.#Xq.{ [ D.t.b.XX+XOX=XOXXX%X2XiXiX9X9X6X}.|.{.!.n.@.@.N.`.dXdX:X!.].Y.d.a.a.q.@.@.b.^./.",
"%XhXD.N L.OX<XrX%X<X+Xg.t.K.L.r.U.s.;XjXpXqX~.+XH.P.L.OXOXOX@X;XwX0X>X1X4X{.6X6X|.6X7X-Xn.q.c.S.A.{.8X_.A._.A.;.a.c.q...E O.M.,X",
"%XgXkXr.jX0XrX%XD.L.P.8.| r.r.8.s.T ;XpX;XqX+XqXOX&XOXOXL.OX*XkX<X>X(.Q.(.}.}.6XB.C.V.d.O...#.-.v._.}.A.A.}.).:.H.n.c.O...O.c.Q.",
"0X0XrX4.P.P.OX8.D.L.P.t.r.b.g.t.U.9.qXqXP.H.b.D.L.OX$XOX~.OX%X0X@X@XQ.(.(.}.6X9X7X`.v.*.q.n.R.!.B.).).A.A.).C.*.c.+.....O.c.f.a.",
"0XD.D.m N g.@XE.XXOX@XOXOX&XOXE.eX;XjXeX^.U.F.H.0.L.@X%X#X$XOXL.k.D.g.N.S.S.}.}.sXA.T v S o.q.b.=.*.v.v.V.A.C.*./.M.q.q.b.n.a.O.",
"XXOX0X0XwXzX%X0XOXOX@X%X%X%X%XOXL.;X+X#X#XH.F.F.r.D.L.H.L.&XL.r.e.0. .} -.:.S.).5XA.d.p.9.s.M.m.=.X.*.v.Y.].Y.V.eX4X^.M.b.f.c.c.",
"%XrX0XrXpXhX~ L.L.L.OXOX%XOX~.XXn.eXL.+X3XP.F.b.K.G.t.` 8.L.U.G.W.D.h.-.-.:._.}.! =.d.U.U.P.h.@.].Y.Y.^.].^.V.d.Q.I.n.q...X.m.^.",
"<XW.K.XXK.h.h.k.q.D.~.W.H.r.g.b.q.,X>X@X+X~.g.q.r.I.U.s.9.D.I.F.T.| +.c.C.U C.d   U 8XQ m.Q.:  .2XF.F.U.U.2XqXU./.[ E O.E ..H.M.",
"<X&X@X$XXXk.e.k.@XOXH.m.g.g.0.+.>XuX@Xf.g.g.g.G.s.s.;XzXpXD.{ o.m.f.@...d.=.dX5X[.*.-.X.M.m.F ,X+Xs.s.F.s.U.+Xs.I.f...@.M.H.M.^.",
"K.W.W.G.| J | G.m.m.g.P.OX,X~.b.W.2X%X^.@XH.+.` s.OXqXqX;X~.s.8.H (.Z.t d.[.dXd.A.X.M.iX,XE } 2XL.d.b.F.s.P.I.D.c.M.+.c.4X1XM.^.",
"H.E.G.+.Y G q.@XD.H.G.b.D.H.r.| H.%X~.E.+XE.q.q.F.~.U.s.s.U.~.F.} r : E fXfXfXfXA.5XA.S.p o n m.q.9.s.F.b.n.D.b.b.n.@.c.#X/.c.q.",
"vXuX(.H.M.m.q.} G.~.E.q.| 0.q.0.H.OXE.L.OXG.t.m.U.s.F.+X#XP.b.~.,X .q @.9X9X'.bX{.7XZ i U t { [ N ( [ 9.q.9.[ o.M.O.@.q.@.f.@.I ",
"1XH.q.Q.vXcX#XI r +.H.f.o.( Y w T.%X(.E.E.r.+.G.qX;X+X;X;X+XU.H.wXvXaX(.M.dXfX5XC.A.p =.7X-XY.P.' o.[ o.s.9.( [ b...@.@.I ^ ..u ",
"iX3X#X1XiXeX+.O >XzXMXzXeX%Xq.r 2X>XF.0.o.( b.uXqXyXqXF.H.2X;XP.(.,XiX>X*.8X5XdX7X[.C.:X:XY.-XqX~.~.9.( q.9.[ +.O.q.c.O.E E ( n ",
"Q.3XaXiX1X/.Q.c.gXzXwXD.g.E.G.} 0.H.Q.E.G.+.r.eX%XU.F.+X;X^.U.U.T.W.Z.s + ].5X[.5XC.'.'.d.:XpX:XqX+X' r ^ ^ n ^ T M.M.@.c.+.T ..",
"k.(.Q.!.}.^.D.XXe.l.XXXXJ.k.y.u.( G.r.D.G.m.>XE.I.s.q.+XpX=X9.U.z.oX| o + *.fX|._.iX#.3X1XG.G.kXa.1X3Xn...a.a.Z q./.R.@.1 2 c.n.",
"z n I y y ( g.7.J.J.J.J.j.e.e.e.q.OXG.H.m.r.~.b.~.qX%XI.~.F.q.s.x.,X&X0.&.C.C.*.{.Q Q ^.H.>X>XE.^.-XyXH.I.,X[ I 1XQ.^./.t u ^.@.",
"h.P ( X.I } k.7.XXXXJ.u.k.e.e.w./ r.r.q.q.f.L.g.q.#X;X+XI.9.~ ^ h.z.E.^.M.&.! &.u 2 -X/.o.m.,X<XH.u ( +.n.T + c.#X1XQ.Q.f.O.q.O.",
"$Xh.g.#X-XG.k.oX&XXXl.J.J.J.j.e.+.m.m.r.q.D.@X~.U.9.' ` A 0 A U.h.+.` [ T I { d.X.=.3X..( F } -.( @.c.T E R y Q.Q.-XH.@.M.^.b.y ",
",.h. .} (.E.6.oX.XK. XXX$X$X Xu.q.g.g./ G | o.+.H.T t A A r ' H.k.u.8.^ ,.p.d.-XY.-XF.t F q -.} @.-Xn.n.M.} b./.,X@.#XQ.E eXaX2 ",
"P $X_ ; +.XX6.z.J.K.oX&X*X$XXX X( o.q.Y G ( / ( ' ' q.s.9.q.O.A 8.s.s.8.s.s.=Xd.{ d.{ O.$.F (.F q.E 1 1XaXO.^.#X1X^.3XH.@.vXgXu ",
"x.<X7.b h.oXj.z.J. X.XoX.X XK.K.| g.>XW.T.%Xm.D.9.o.b.q.Y ' s.q.' p.8.8.s. Xt.D p.d.' d.N.Z.s O *.c.+.I./.aXmX(.4XgX1X..#XaXq.@.",
"x.P z e.XXj.6.x.K..X.XJ.u.y.k.z.^ 0.2X~.G.H.~ n ^ n 9.U.[ t [ F.s.{ S ' s.s.s.t.S -Xs.] R W X f.uX/.1Xb.E 2XvXQ.iX3X/.@.Q./.Y @.",
"z.3.L y.oXoX X XXX.Xl.k.J.l.K.*Xw.4.4.b P  .e -.m.} F.F.c Y ~.P.b.q.{ ^ ^ [ 9.s.@.q.E q.I X u 1X/.@.E O.+.O.@.n.+Xb.9.P.n.^ I [ ",
"z.z g ) e.e. XkXtX&XoXXXJ.5.4.r.m k 4.4.-.k.h.g.W.E.H.q.{ s.D.s.qXs.N r Y [ o.' f.Y < i < 5 M.#X( Y Z v I ..O.o.b.n s.0XP.q.D.o.",
"M l M _ L b H  .k.h g V k m w.J.M 7 e.G.-.k.W.T.I.#X[ v s.U.r.F.+XU.9.^ n v Z Y 1 O E q.. O 4X..n ^ ^ N ' n.P.q.{ n F.yX+XH.L.o.",
"b K.wXXX7.h.3.z 6 @ , u.w.e.oX X$XXX$X&Xh.g.W.W.9.o.9 9 I.+Xs.+Xs.H.+XF.[ v c v o M.4X^.U % t ] D [ t.8.t.L.=XP.~ s.F.~.;XF.[ 9.",
"/ XXwXz.-.z.,X@Xw.6 ) XXl.u.K.e.j.XXh.4. .H s H ' 5 < o.;X%XF.U.s.F.H.U.U.s.Y r Q.nX1XQ.1XY 1 E D V D p.8.` p.t.' F.b.9.b.9.( 9.",
"+.h.g.h. .-.W.wXxX.Xy.e._ 4.l.u.w.$Xl.G.@Xh. . .Y 5 { eXjX;XF.9.s.F.U.H.s.o.9.s.cX4XU.3X/.E E 0 A v v { ^ c v ' ^ o.s.o.Y [ s.o.",
"W.T.(.<X,XT.T.,XtX$XoXK.oX$X&Xk.5.l.4.G.XXg.h.R A ' ~.qX;X+XU.o.o.H.+Xs.A Z s.qXQ.3XQ.-X4XE 0 I I I Y Y Z y Z ^ r [ F.q.' 9.9.{ ",
"g.(.(.T.T.(.W.h.4.w.) M 4..XK.u.XXu.1.l.g.h.R.F v b.+Xs.[ F.U.b.s.s.s.[ ^ ' s.+X1XeX-XeX,X@.+.O.u I E t q y T Z = H.~.9.H.s.N ^ ",
"oX@X(.g.h.Z.Z.-.7.G. .# ; g.<XK.e.h.k. .G k.XX .` s.9.r.~ 5 { D.H.s.9.F.[ a.jX+XeX+XqX#X#XF.' eXsXC.! a ! &.X.! U !.A.! ! &.C.fX",
"H  .h.z.(.,X3X,X .4 $ k 7.G.K.W.K.| / }  .k.G. .9.T 9 A [ A ~ r s.[ s.8.[ qXnX2X#X+X;X+X+XF.9.0Xv.v.C.'.7X9X_.*.O.*.Q u U '.dXsX",
"L h.T.W.(.,XT.f. .k H W.XX| _ L.K.g.K.<X(.7.H , ' T 0 ~ ' I o.[ 9.[ OX` ^ qX;Xo.o.P.s.q.9.' 9.n.b.F.(.qXiXeX#XH.a.1 U 9XbXbXbXdX",
" .g.W.W.T.z.0.G / 0.W.@Xk./ G  .g.G.@X$Xh. .h.K.b.Y O 0 ' [ 9.( 9.o.d.r 5 H.;XU.n d.Y A n c q.o.E.E.L.H.L.H.R.E.~.n Q aXNXbXbXNX",
"e.z.H.0.3.4.~ k H L / J  .7._ b  .k.G.+._ 7.G.>X0XU.{ 9.q.' [ T A 9.9.9.^ ^ F.s.^ b.' I r n F.q.g.T.W.@X&XE.G.G.b.E.b.b.8XbXdX9X",
"h.k.h._ K ) L B H H / / H H | h.4.7.L H 0.k.0./ +XeXqX2Xq.9 v A v 9.( 9.A 9 ~ r ` q.9.' v A b.9.G.L.E.G.G.h.e.0.| Q.R./.cXcXV.Q ",
" .7. .J K 5.i.i.H 7.G.g.G k | XXg._ > e h.G.r.g.q.q.~ 9.o.c I n ( [ c = 5 ' F.F.9.{ H.s.Y ' ` ( H.f.o.Y Y ( ..+.E.G.m.Q.-XM.@.;.",
"E.W.k._ K <.2.,.w _ 0. .J | 0.w.W.h.| G.<Xk.b J ^ o.` s.q.q.pXMX9.s.U.{ n.gX+X9.F.9.eX0Xb.n.` o.E Y n I ( f.n.M.e.r.P.o.2 u c.n.",
", | ,XK. .0.k. .w H  .4.5.5.i.i.R.0.0.m.8.~ ) <.B  Xi.4.7.K.&X} b w 7.%XOXs.8.S g.H.H.g.q.g.q.` O.' [ 9.[ ` [ ( I R.c.Y Q.4XQ.Q.",
"H  .k.g.4.k.,XK.h.h.h.e.k.l.l.l.m.b.0.8.) N V ' | e.J G /  .E.G.4.0.%XwXD.' p.9.b ~ | q.G.H.0.F { ' s.F.+.{ ^ r O.Q.c...M./.F.M.",
"/ H | h.h.k.W.G.W.K.G.j.k.J. X Xo.D.+.N ) D V p.I R r y I [ ^.^.h.0.k.%XL.t.t.9.w | ~.E.q.o.| +.q.( ~ n 0 N [ ' ~.U.c.q.b.n.b.c.",
"M w / k.0. . ._ g.g.k.e.4.2.w.i.E m.n & c m - m }.aXN.W I O.~.9. .L 0.W.OXs.{ S G q.L.m.~ G +.H.F.b.I.U.F.+X;XU.1XM.c.n.c.c.c.n.",
"b e _ g.| H P / H | g.y.<.K 2.i.Y +.8 < r.*X=X*X=.S.W i i I b.( L 0.L.E.r.N c ' ^ n q b ( q.b.g.+X#XqXqX;XpXgX;X1Xc.@.M.n.f.n.Q.",
"H r L 0.J G +.k.k / h.h._ V <.y.b.q.w 3 ' w.D V b.M.q.Q.n.Y Y n | 0.0.0.8.^ ' s.( n c / r.m.0.o.+X#X%XU.b.+X0XU./.c.q.c.Q.M.n.^.",
"L b H / H G |  .H H / ) K K ) <.b.| n b ) D V D 7 M J G.L./ H F L H w H t.0.[ s.} ( 0.m.b.8.| 0.8.H.qXeX;X2X~.Y n.Q.c.a.^.Q.c.Q.",
"G k b J G P z ; / H w h m V B l q.R ~ ( D m ) p.K 5.M j 7 w / b , F J / ( c r p./ r b o.m.r.9.| Z [ U.F.s.H.F.N c./.b.@.#X(.q.H.",
"> , m _ 3.1.4.l.&X2.2.y.C * l V K.9.c 3 8 6 h q.J J b b : ( eXX.L  . ./  .7.| M n 4 % ; r ^ ( / { [ ..n...M.F.  D.H./.#XR.H.Q.H.",
"_ J M J V K e.XX) K w.i.w.w.2.h ) 8.n $ 8 D n 8 k e k ` ^ @.1Xc.G / ) / | h.h.| n b r c Y | q.g.Q.q...@.E u I E c.b.n.b.q.+.+.O.",
"j.4.J V M J w.oXK K <.<.<.i. Xi.0.o.N N ` b % # H M G m.R.@.X.E 0.0.| /  .4.4./ ( | +.+.+.0.g.L.f...q.a.c.H.H./.m.b.q.q.q.O.E Y ",
"<.<._ ) J J 1.e.w.<.K J h h y.kXN r G r.D.( N Y _ 0._ q.E.+.r t k.h.7._  .| } J g.g.q.g.g.g.b.m.M...3X3Xn.3X-Xa.V.Q.V.I./.V.O.Q ",
"m J ) ) K J K ) 4.3. .L M 8 V l.q 0.R.m.+.h.m.+.M  .J b +.a.E ..0.} J / | 4.7.7.b.+.( 8.g.T.m.q.H...iX4X..O.b.1Xn.!./.4XaX4X*.X.",
"k b J M l J K J _ 0.H > b 4./ k g.Q.3X(.( F ( ..j H N 4 n ..T =.| L H J  ._ / / | Y b Y q.D.D.g.Y @.@.I E o...Q.=._.].{.9X{.=.=.",
"k V ) M l M V V J  .7 + b h.0.| Z.+.M.(.E q F +.m w H 5 5 q < E | G H / / H b b | Y F H ( 0.0.0...M.Z 5 E ..I u *.'.].!.8XC.Q =.",
"g K 1.L J J M h e w ; e / 0.h.@XM.Z.R.+.q q t : k $ b H 5 & O I b e e J / L H G 0.8.` I n n Y } n.y < O.E < +.H.v.6X'.A.`.;.! *.",
"l g C L x g , #  .3.j.P > 3.oXh.d.O.A Q *.@.n : J V h , # $ k P 3.k l _ e.XX&Xw.) ' D c 9 8 / c.' 8.r.q.` ` N 3 } S.f %.%.i U n.",
"x g x z x P 3.,.3.P P P M P 6.j.d.E p Q N.S.o.e k 6 7 B 8.l.u.w.e.<.4.w._ 3.w.) ) D V h % - r R c r.) n 8.` c G q u a %.i a U..X",
"B g l z x ,.j.6., > g x H k x P 9.[ Q $.n.(.} ; > k J 1.3.3.<._ 4.) 3.5._ 4.4.1.1.1.' V 8 5 v Y c 0.Y 7 / ~ c ~ R I d ! p T P.i.",
"> , x ,.K <.3.L ; x > # > z z P S { +.+.f.f.G $ u.J.K.u._ V K ) 1.V M ) w.l.y.1.1.5.8.` Y G R ( ( ) _ N c N ~ m / ( u Q V.g.8.z.",
"* * C 5.6.y.y.,.>  . .L 6.3.j > - v Y F F R _ P  Xy.) J _ 1.) J e.4.J L 4.5.) V 1.1.p.' Y H n F | ` | ~ n ~ ) n 7.8 2 E /.b.b ( ",
"C x ,.6.6.6.i.2.L L 3.x.K.P ; ; h h r 5 : e P 6.M M m m B V J B _ e.w.<._ J M ) u.i.t.' ~ b r r N g.~ c ` ` N | K., r n.!.B.! d ",
"3.,.6.y.3.3.6.L x.H > M x > x L x > > e b > j P m K 4.) V m ) 3.V 3.1.) <.J P e.J.s.w.` G n r q ~ r.G 3 N ~ n | 2.6 / c.A.|.>.>.",
"j j P 5.3.5.6.L z > z P P 3.j.P ; o & R h./ j x V k > 7 k V J V _ 4.J V 4.<.J ) ` ) V c w 5 4 < g.8.~ 8 % r V N C 5.g.d &.>.%.>."
};
