/* XPM */
static char *_647456655061[] = {
/* columns rows colors chars-per-pixel */
"64 64 256 2 ",
"   c black",
".  c #1F170B",
"X  c #170F07",
"o  c #4B4B4B",
"O  c white",
"+  c #1B1B1B",
"@  c #131313",
"#  c #0B0B0B",
"$  c #070707",
"%  c #2F371F",
"&  c #232B0F",
"*  c #171F07",
"=  c #0F1700",
"-  c #4F3B2B",
";  c #473323",
":  c #3F2B1B",
">  c #FFB7B7",
",  c #F7ABAB",
"<  c #F3A3A3",
"1  c #EB9797",
"2  c #E78F8F",
"3  c #DF8787",
"4  c #DB7B7B",
"5  c #D37373",
"6  c #CB6B6B",
"7  c #C76363",
"8  c #BF5B5B",
"9  c #BB5757",
"0  c #B34F4F",
"q  c #AF4747",
"w  c #A73F3F",
"e  c #A33B3B",
"r  c #9B3333",
"t  c #972F2F",
"y  c #8F2B2B",
"u  c #8B2323",
"i  c #831F1F",
"p  c #7F1B1B",
"a  c #771717",
"s  c #731313",
"d  c #6B0F0F",
"f  c #670B0B",
"g  c #5F0707",
"h  c #5B0707",
"j  c #530707",
"k  c #4F0000",
"l  c #470000",
"z  c #430000",
"x  c #FFEBDF",
"c  c #FFE3D3",
"v  c #FFDBC7",
"b  c #FFD3BB",
"n  c #FFCFB3",
"m  c #FFC7A7",
"M  c #FFBF9B",
"N  c #FFBB93",
"B  c #FFB383",
"V  c #F7AB7B",
"C  c #EFA373",
"Z  c #E79B6B",
"A  c #DF9363",
"S  c #D78B5B",
"D  c #CF8353",
"F  c #CB7F4F",
"G  c #BF7B4B",
"H  c #B37347",
"J  c #AB6F43",
"K  c #A36B3F",
"L  c #9B633B",
"P  c #8F5F37",
"I  c #875733",
"U  c #7F532F",
"Y  c #774F2B",
"T  c #6B4727",
"R  c #5F4323",
"E  c #533F1F",
"W  c #4B371B",
"Q  c #3F2F17",
"!  c #332B13",
"~  c #2B230F",
"^  c #EFEFEF",
"/  c #E7E7E7",
"(  c #DFDFDF",
")  c gray86",
"_  c LightGray",
"`  c #CBCBCB",
"'  c gray78",
"]  c gray75",
"[  c #B7B7B7",
"{  c gray70",
"}  c gray67",
"|  c #A7A7A7",
" . c #9F9F9F",
".. c #979797",
"X. c #939393",
"o. c #8B8B8B",
"O. c #838383",
"+. c gray50",
"@. c #777777",
"#. c #6F6F6F",
"$. c gray42",
"%. c gray39",
"&. c #5B5B5B",
"*. c gray34",
"=. c gray31",
"-. c gray28",
";. c #434343",
":. c gray23",
">. c #373737",
",. c #2F2F2F",
"<. c #272727",
"1. c #232323",
"2. c #77FF6F",
"3. c #6FEF67",
"4. c #67DF5F",
"5. c #5FCF57",
"6. c #5BBF4F",
"7. c #53AF47",
"8. c #4B9F3F",
"9. c #439337",
"0. c #3F832F",
"q. c #37732B",
"w. c #2F6323",
"e. c #27531B",
"r. c #1F4317",
"t. c #17330F",
"y. c #13230B",
"u. c #0B1707",
"i. c #BFA78F",
"p. c #B79F87",
"a. c #AF977F",
"s. c #A78F77",
"d. c #9F876F",
"f. c #9B7F6B",
"g. c #937B63",
"h. c #8B735B",
"j. c #836B57",
"k. c #7B634F",
"l. c #775F4B",
"z. c #6F5743",
"x. c #67533F",
"c. c #5F4B37",
"v. c #574333",
"b. c #533F2F",
"n. c #9F8363",
"m. c #8F7753",
"M. c #836B4B",
"N. c #775F3F",
"B. c #675333",
"V. c #5B472B",
"C. c #4F3B23",
"Z. c #43331B",
"A. c #7B7F63",
"S. c #6F7357",
"D. c #676B4F",
"F. c #5B6347",
"G. c #53573B",
"H. c #474F33",
"J. c #3F472B",
"K. c #373F27",
"L. c #FFFF73",
"P. c #EBDB57",
"I. c #D7BB43",
"U. c #C39B2F",
"Y. c #AF7B1F",
"T. c #9B5B13",
"R. c #874307",
"E. c #732B00",
"W. c white",
"Q. c #FFDBDB",
"!. c #FFBBBB",
"~. c #FF9B9B",
"^. c #FF7B7B",
"/. c #FF5F5F",
"(. c #FF3F3F",
"). c #FF1F1F",
"_. c red",
"`. c #EF0000",
"'. c #E30000",
"]. c #D70000",
"[. c #CB0000",
"{. c #BF0000",
"}. c #B30000",
"|. c #A70000",
" X c #9B0000",
".X c #8B0000",
"XX c #7F0000",
"oX c #730000",
"OX c #670000",
"+X c #5B0000",
"@X c #4F0000",
"#X c #430000",
"$X c #E7E7FF",
"%X c #C7C7FF",
"&X c #ABABFF",
"*X c #8F8FFF",
"=X c #7373FF",
"-X c #5353FF",
";X c #3737FF",
":X c #1B1BFF",
">X c blue",
",X c #0000E3",
"<X c #0000CB",
"1X c #0000B3",
"2X c #00009B",
"3X c #000083",
"4X c #00006B",
"5X c #000053",
"6X c white",
"7X c #FFEBDB",
"8X c #FFD7BB",
"9X c #FFC79B",
"0X c #FFB37B",
"qX c #FFA35B",
"wX c #FF8F3B",
"eX c #FF7F1B",
"rX c #F37317",
"tX c #EB6F0F",
"yX c #DF670F",
"uX c #D75F0B",
"iX c #CB5707",
"pX c #C34F00",
"aX c #B74700",
"sX c #AF4300",
"dX c white",
"fX c #FFFFD7",
"gX c #FFFFB3",
"hX c #FFFF8F",
"jX c #FFFF6B",
"kX c #FFFF47",
"lX c #FFFF23",
"zX c yellow",
"xX c #A73F00",
"cX c #9F3700",
"vX c #932F00",
"bX c #872300",
"nX c #4F3B27",
"mX c #432F1B",
"MX c #372313",
"NX c #2F1B0B",
"BX c #000053",
"VX c #000047",
"CX c #00003B",
"ZX c #00002F",
"AX c #000023",
"SX c #000017",
"DX c #00000B",
"FX c cyan",
"GX c #FF9F43",
"HX c #FFE74B",
"JX c #FF7BFF",
"KX c magenta",
"LX c #CF00CF",
"PX c #9F009B",
"IX c #6F006B",
"UX c #A76B6B",
/* pixels */
">.>.>.>.>.>.>.>.>.>.>.>.>.>.>.>.>.>.>.>.>.>.>.>.>.>.>.>.>.>.>.>.>.>.>.>.>.>.>.>.>.>.>.>.>.>.>.>.>.>.>.>.>.>.>.>.>.>.>.>.>.>.>.>.",
"*.>.*.-.-.-.-.-.*.-.-.-.-.-.-.*.-.>.-.-.-.-.-.-.-.*.*.*.*.*.*.-.-.-.-.-.-.-.-.-.*.*.*.*.*.*.*.-.-.-.-.>.>.>.-.-.*.*.-.-.-.-.-.>.",
">.|.|. X X X X X X X X XoX-.-.*.| | ....................................+.-.>.*.`.`.`.`.'.'.'.'.'.'.].].].].].[.[.[.[.{.{.{.|.-.",
"-.|..XXXXX XOXoX XOX.XoXk ,.-.*.| o.%.o.%.o.%.o.%.o.#.o.#.o.%.o.%.o.o.+.*.,.-.>.].|.[.}.[.}.}.[.oX[.XX[.}.[..X}.|.XX[. X[.|.XX,.",
"-. XoX+XoXOXoXoX+XoXOX+Xk ,.-.*...o.%.%.+.%.*.+.+.*.#.+.+.*.#.+.*.+.#.*.-.,.-.*.].|.|.XXOX|..XoX.X|.XX.X|.|..X|.XX.X|.+X|.oXOX,.",
"-. X+XoXoX+XoXoXoX+XoXz ~ ,.-.*...%.o.+.%.+.*.+.%.+.*.+.*.%.%.+.*.#.%.*.-.,.-.-.].oX|.OX.X|.OX|.oX|.XX|..X|.OX|. XXX|.XX|.oXk ,.",
"-..XoX+XOXoX+XoX+XOXoX+X~ ,.-.*.o.o.%.+.%.%.#.+.*.%.*.+.%.*.#.%.%.*.+.*.>.,.>.-.{.oX|.XX|..XOX|.oXoX|.|.oX|..X|.|.XX|.+X|..Xk ,.",
"-.XX+XoXoX+XoXoX+XoX+Xz ~ ,.-.-.o.o.%.+.*.+.*.+.*.+.*.#.%.*.%.+.*.#.%.*.-.,.>.-.{. X|.OX.X|.XX.XoX.XXX|..X|.OX|.XX.X|.XX|.oXz ,.",
"-.XXoX+XOXz +X+Xz +XOX+X~ ,.>.*.#.#.*.*.;.%.*.*.%.*.;.*.%.*.%.*.;.%.*.*.>.,.>.-.{.oXoX+XoXoXk .Xk oX+X.Xk oXk .XOXk oX.XoX.Xz ,.",
"-.+Xk k k ~ ~ ~ ~ ~ ~ ~ ~ ,.>.-.%.-.-.-.-.-.-.-.-.-.-.-.>.>.>.>.>.>.>.>.>.,.>.-..XOXOXOXOXOXOXOXOXOXOX+X+X+X+X+X+X+X+X+Xz z z ,.",
"-.-.,.,.,.,.,.,.,.,.1.1.1.,.>.*.-.,.,.,.,.,.1.1.1.1.1.,.,.1.1.1.1.,.,.,.,.,.-.*.>.,.,.,.,.,.,.,.,.,.,.,.1.1.1.1.1.,.,.,.,.,.,.,.",
"*.>.>.>.>.-.-.-.-.>.>.>.>.>.-.>.-.-.-.-.-.-.-.>.>.>.*.-.-.-.>.>.-.-.-.-.-.-.*.>.-.*.*.*.*.&.%.%.&.*.*.-.-.;.>.;.*.>.*.-.-.-.*.>.",
"`.].].].{.{.{.{.{.{.{.{.{.{.{.|.-.*.-.qXqXS S S S S S F F F F F F F G G G G G G G G G G G G G G G G G G K -.;.*.`.`.].].].].].].",
"}..X.X}. XXX}.XX X.X}.OX}..X|.z >.-.*.qXY H F I G T I G I I F L K I I I K I K I K I F T F I L G F L F K Q >.-.>.`.[.XX}..X}..X}.",
".X|..X|.XX.X.XOX|..XOX.X|.|.oXz ,.-.-.S H Y K I K K I K T K Y T I K I K I K T K K I T K I K Y I K Y K Y Q >.-.*.[.}.XX|..XXX|. X",
"oX|.|..X XOX|.XX.X.X XOX|..XoXz ,.>.-.S Y K I L I I T I I Y K I T K I I T I I I K R I I K Y K Y K K Y Y Q ,.;.-.[.XX|.|.|.XX|.XX",
"|..X.X|..XXXXX.XXX|. XOX|.OXoXz ,.>.-.S Y K K I K T I K T Y K T I K I I I K T K I R K T K Y I Y K Y K Y Q ,.>.-.[.}.XX|.XX|. XXX",
"oX|.OX|.oX.XXX XOX|.OX.X|.|.oXz ,.-.*.S H R K I K I T I R I Y T K I I R I K T I R I K T I K Y I K Y K Y Q 1.>.-.}.XX|.|.+X|.XX.X",
"oX}.OXoXk XXoX XoX XoX+X XoXoXz ,.-.*.H K Y I R Y L Y I T Y I R Y L Y L T I Y I I R L Y Y I E Y L Y I Y Q 1.;.*.}.|.XXoX+XoX XoX",
"z k k k k k k k k k k k k z z z >.-.*.K T T T T T T T T T T T T T R R R R R R R R R R R R R R R R R R Q Q 1.-.>.|.OXz OXz z OXz ",
",.,.,.1.,.,.,.1.1.1.,.,.,.1.1.,.>.-.>.-.>.>.,.,.,.,.,.,.>.>.>.>.>.,.,.,.1.1.1.1.1.,.,.,.1.1.1.1.,.,.,.,.,.>.-.*.-.,.,.,.,.,.,.,.",
"*.*.-.>.>.-.*.>.*.>.-.-.>.>.>.>.-.-.*.-.-.-.;.>.;.>.;.>.;.-.-.-.*.>.*.-.;.>.>.>.;.;.-.-.*.;.>.>.;.-.-.-.*.-.*.>.*.;.>.;.*.-.-.-.",
"*.| | ..............o.o.o.o.o.o.o.o.o.o.o.o.o.o.o.o.o.+.-.*.*.|.|. X X X X X X X X X X.X.X.X.X.X.X.X.X.X.X.X.X.X.X.X.X.X.X.XXX-.",
"*.| %.+.o.%.o.%.o.%.+.%.+.%.+...%.+.%.+.%.o.+.-.+...*.>.>.-.*.|..XOX XXX.XoXXX.XoX.XXX.XOX+XXXoXOXoXXXOXoXXXXXoXXXOXoXXXk XXz ,.",
">.| +.%.+.#.+.%.*.%.+.+.%.#.%.+.%.-.+.*.+.%.-.%.+.*.+.>.,.-.&. X.XXXXX+XXX+XoXOXXXoX+XXX+XoXXX+XXXOXXXOXXXoXXX+XXXXXOXXXOXOXz ,.",
"-.o.-.+.+.*.%.-.+.-.+.*.+.%.#.+.-.%.+.*.%.+.%.-.%.+.*.>.,.*.%. X.XOXXXOXXX+XXXOXXXXXOXXXOXXXoX+XXXOXOXXXXXOXXXoXXXXXOXXXk OXz ,.",
"-.o.+.%.+.;.+.-.*.%.+.%.*.%.+.%.%.-.%.+.-.+.%.-.+.*.-.>.,.*.&. XOXXXOXXXoX+XoXXXOXXX+XoX+XoXXXOXoXOXoXOXXXoXXX+XXXOXoXXXOXOXz ,.",
"*.o.*.-.+.;.%.%.+.-.+.-.+.-.+.%.-.%.+.%.-.+.-.%.%.%.+.>.,.-.*. X XOXXXOXXXoXXXoXOXXX+XXXk OXOXk XXk XXk XXk XXXXoX+Xk OXoXOXz ,.",
"-...+.-.*.*.*.-.*.;.*.*.%.-.%.*.*.%.*.*.-.*.#.*.#.*.*.>.,.>.*. XXXOXXXOXoXk OXOXOXOX+XoXOXoXk XXk OXXXk OXoXk XXk XXk XXOXOXz ,.",
"-.+.#.-.-.-.-.-.-.-.-.-.-.-.-.-.-.;.;.;.;.;.;.;.;.;.>.>.,.>.*.XX+X+X+X+X+X+X+X+X+X+X+X+X+X+Xk k k k k k k k k k k k z k OXk z ,.",
"-.-.>.,.,.,.,.,.,.,.,.,.,.,.,.,.,.,.,.,.>.>.>.,.,.,.,.,.,.-.-.-.,.,.,.,.,.,.,.,.1.1.1.1.1.,.>.>.>.,.1.1.1.,.,.,.,.,.,.,.,.,.,.,.",
"*.*.*.*.*.-.-.>.-.>.>.>.-.*.%.%.*.*.*.-.-.-.;.;.>.>.;.>.>.;.*.-.-.-.*.>.*.-.*.-.;.>.;.>.;.-.*.*.-.-.;.>.;.-.-.-.*.>.*.-.-.-.*.>.",
"{.{.{.{.{.{.{.{.{.{.|.-.>.*.S S S S S S S S G G G G G G G G G G G G G G G G G K -.*.*.[.`.].].].].].].].].].{.{.{.{.{.{.{.{.{.{.",
"|.}.|.}. X[.}.}.[.|.z >.-.>.S K T K Y K K T K I K K Y K I T K K T K K Y K I K Q >.-.*.].|.XX|.oX|.|.OX|.XX.XXX|.oX|..X|.XX|.oX|.",
"|.XX.X|. X|.XX|..XoXz ,.-.*.S T K I I K I K L Y K I I Y I I K I T K Y I K T K Q >.*.*.].|.+X|.oX|..XOX|..X|.XX.X.X XoX XXX X.XoX",
".XXX|. XXX|.XX X|.oXz ,.-.>.S T K K I L K Y K Y K I K R K E I I K I Y L K I K Q >.*.%.].|.XX|.oX|..X|..X|.|.XX|.oX X.X|. XXX|.oX",
"|..XXX|. X|. XXX.XoXz >.-.*.S L T K I K I R L I I I Y I K T K I T I L Y I K I Q >.*.%.].XX|.|.oX|.OX|.|.XXXX|.XX|..X X X.XXXoX.X",
"|..XXX|.XX|.XX X|.oXz >.-.-.S T K I R L K Y I I K I K Y I E T L T K L Y K I K Q >.-.*.[.|.XX|.|.oX|..X.XXX|.XX|.oX X.X|.XX.X|.oX",
"oXoX.X XoXoX XoXoXoXz >.-.-.L T K K R K I Y K Y K T K R I T K I T L Y L K T I Q ,.-.*.[.|.+X|.oX|.|..X|..X|.XX|.oX XoX XXX|.|.oX",
"z z k k k k k k k z z ,.-.-.K T T T T T T T T T R R R R R R R R R R R R R R Q Q ,.-.-.|.OXOXOXOXOXOXOXOXOXOXOXOXOXOXOX+X+X+X+Xz ",
",.,.,.,.,.,.,.,.,.,.,.,.-.*.-.,.1.1.1.1.,.,.>.>.>.,.1.1.1.1.1.,.,.,.,.,.,.,.,.,.>.-.-.-.,.,.,.,.>.>.-.>.,.,.1.1.1.,.,.,.,.,.,.,.",
"*.-.*.>.-.>.>.-.-.>.>.>.>.-.-.>.>.>.-.-.-.-.-.*.*.-.-.>.>.>.*.-.-.-.*.>.-.>.-.>.-.-.*.-.*.>.*.-.*.&.%.*.-.-.-.>.*.-.*.-.*.>.*.>.",
">.|.XXXX X X X X X.X.X.X.X.X.X.X.X.X.X.X.X.X.X.X.X.X.X.X.X.X.XXX>.*.>.`.`.].].].].].].].].{.{.{.{.{.{.{.{.{.{.{.{.{.{.{.{.{.|.-.",
"*. XOXOXoXXX+XXXXXOXXXXXOXXXOXoXXX+XXXOXXXoXXX+XXX+XXXXXOXOXXXz >.-.*.`.|.|.OX|.OX|.+X|.oX|.+X|..X+X X.XoX|..XXX|.XX XoX.X|.z ,.",
"-. XOXk XXoX+XXXoXXXOXXX+XoXk XXXX+XXXk oXXXoX+XXXOXXXOXXXOXXXz ,.-.-.]..X|.OX.XOXXX+X.X+X XXX|.+X|.OX|.oX.XoX|..XXX X|.OX.Xz ,.",
"-. XOXk XX+XoXOX+XXX+XXXoXOXoXXX+XXXoXoXk OXXXk XXk oX+XoXoXOXz ,.>.-.]..X|.OXOX.X|.XX+X|.XX+X X|.+X|.oXoX|.oX|.XX|.oX.XOX|.z ,.",
">. XOXOXXXoX+XXXoXOXXXXXOXXXk oXXX+XXXk oXXXk XXXXOXXXXXXXOXOXz ,.>.-.].|.OX|..XOX|.+X|.oX XXXXX+X.XOX|.XX.X X.X XXXoX|..X|.z ,.",
"*. XOXk oXXX+XXX+XXX+XXX+XXXOXXX+X+XXXk oXOXXXOXoX+XXX+XoXOXXXz 1.>.*.].|.OXOX|.OXXX+X|.+X|.+X X+X|.OX.XoX|.oXXX|.XX X.XOXoXz ,.",
">. XOXk XX+XoXOXoXXXOXXXoXoXoXXXXX+XoXOXk +XXXk XXOXXXOXXXOXXXz 1.>.*.[.oX|.OX.XOX|.+XXX|.XX+X XoX.XOX|.oX|.oX|.XX XoX|.OX|.z ,.",
"*.XXk k +X+X+X+X+X+X+Xk k k k k k k k k k k k k k k k k k k k z ,.-.*.|.OXOXOXOXOXOXOXOXOX+X+X+X+X+Xk k k k k k k k k k k z z ,.",
">.-.,.,.,.,.,.,.,.,.,.,.>.>.>.,.1.1.1.1.,.,.,.1.1.1.1.,.,.1.1.,.,.-.>.-.,.,.,.,.,.,.1.1.1.,.>.>.>.,.1.,.,.,.,.1.1.1.,.,.,.,.,.,.",
"*.>.*.>.*.-.*.-.-.-.-.*.%.%.*.-.*.>.*.-.*.-.;.>.>.>.;.-.*.-.-.>.-.-.*.>.*.-.-.-.-.-.-.-.-.-.*.*.*.-.-.-.-.-.>.>.1.1.>.>.-.-.*.-.",
"].].].].].{.{.{.{.{.{.{.{.{.{.{.{.|.-.*.-.qXqXS S S S S S S S G G G G G G G G G G G G G G G K -.>.*.`.].].].].].{.{.{.{.{.{.{.{.",
"XX|.+X|.|.OX XOX|.XX[.XX|.OX|.XX|.z ,.-.-.S K K K K T K E K I K T K T K E K T K T K R K Y T Q >.-.*.].|.OX.X|.+X|.oX|.oX|.OX|.oX",
"|.XXXX|.XX|.OX XXXOX|.+XXXOX.XOX.Xz ,.-.-.S I K Y K T Y E I L I K I T E E T I I Y I R K T K Q >.-.*.].OX|.+X|.oX|.oX.X|.oX|..Xk ",
"|.XX+XXX|.OX XOXXX|.XX+X|..XOX XXXz ,.-.;.S I I Y K T I I K R K E K E E K T K T I R I I T Y Q ,.-.*.].OX|.oXoX|.|..XoX.XoXOXoX.X",
"XX X+X XOXOX|.OX|.XX|.+XXXoXOX|.OXz ,.-.;.S K E Y K T K E K I L T K E E I T K T K I R Y L T Q ,.-.*.].|.OX+X|..XoXoX|.oX|.OXoX|.",
"OX|.XX|.OX|.OX.X|.OX|.XX+X.X|.XX.Xz ,.-.;.S E K K T K I Y I R I E E E E T I I T I Y R I Y T Q ,.-.-.].OX|..X|.oX|..XoXoX+X|.oX|.",
"OX|.XXXXOX X XOX XOXXX+X|.OX|.OX Xz ,.-.-.S E K Y K T I I I E L E E E K I T K I T K R K R I Q ,.>.-.].OX|.+XoX+X|.oX|.oX+XOX|.k ",
"XX X+X|.OXOX.XOXXXXX|.+X|.OXoX.XXXz ,.-.*.F K E Y K T K E I T K T E Y T K T I K T I Y I T I Q ,.>.-.[.OXOX+X|.+X|.oX|.oX|.OX|.oX",
"k k k k k k k k k k k k k k k k z z ,.-.-.K Q Q Q Q Q E E E E E E E E E E E E E E E E E E Q Q 1.-.*.|.z z k k k k k k k k k k k ",
",.,.,.,.,.,.,.,.,.,.,.,.,.,.,.,.,.,.,.-.*.-.>.>.>.,.,.,.,.,.,.,.,.,.,.,.,.,.,.1.1.1.1.1.,.1.1.1.>.-.-.,.,.,.,.,.,.1.1.1.1.1.,.,.",
">.*.>.*.>.>.>.-.-.-.-.-.*.*.>.-.-.-.-.*.*.*.*.*.-.-.-.*.-.-.-.*.-.-.>.-.-.-.;.>.>.;.>.>.;.-.;.>.;.*.-.-.>.*.-.-.-.-.;.>.;.-.-.-.",
"*.*.*.*.*.*.*.*.*.*.*.*.*.*.*.*.*.*.*.*.*.*.*.*.*.*.*.*.*.*.*.*.*.*.*.*.*.*.*.*.*.*.*.*.*.*.*.*.*.*.*.*.*.*.*.*.*.*.*.*.*.*.*.*."
};
