/* XPM */
static char *_9f32b42bb964ec28d1af290f1392896cqzsrbL1Xl2sDENe[] = {
/* columns rows colors chars-per-pixel */
"61 64 256 2 ",
"   c #623F5F",
".  c #79595B",
"X  c #71495A",
"o  c #786559",
"O  c #6B466B",
"+  c #774669",
"@  c #7A5868",
"#  c #744B75",
"$  c #7B5877",
"%  c #6C4F72",
"&  c #796766",
"*  c #776876",
"=  c #8C4E58",
"-  c #A8485D",
";  c #A5565C",
":  c #B54E5F",
">  c #8D6659",
",  c #874969",
"<  c #944C6A",
"1  c #984967",
"2  c #865669",
"3  c #9B546C",
"4  c #975869",
"5  c #964D73",
"6  c #875979",
"7  c #985576",
"8  c #8A4E73",
"9  c #A64A65",
"0  c #B34C68",
"q  c #A95768",
"w  c #B4596B",
"e  c #A75875",
"r  c #B75B76",
"t  c #B54C70",
"y  c #896668",
"u  c #886677",
"i  c #986776",
"p  c #977278",
"a  c #926F6F",
"s  c #AA686A",
"d  c #B3666B",
"f  c #A86777",
"g  c #B9667B",
"h  c #AB7578",
"j  c #B8767B",
"k  c #A4746B",
"l  c #C8566E",
"z  c #C75C76",
"x  c #D25E76",
"c  c #C66677",
"v  c #D5657C",
"b  c #C8777C",
"n  c #DC757B",
"m  c #C66B6D",
"M  c #EC6A76",
"N  c #ED6A7B",
"B  c #E46A7A",
"V  c #F4677C",
"C  c #F5697C",
"Z  c #F06977",
"A  c #EC7279",
"S  c #EA777A",
"D  c #F2797E",
"F  c #9C837C",
"G  c #AD877C",
"H  c #D28D7B",
"J  c #E6987D",
"K  c #EA857F",
"L  c #E3A17F",
"P  c #7D5986",
"I  c #7C6781",
"U  c #865A86",
"Y  c #915089",
"T  c #B35991",
"R  c #976784",
"E  c #977689",
"W  c #8A6994",
"Q  c #956A96",
"!  c #9C7797",
"~  c #876E88",
"^  c #A96887",
"/  c #B86987",
"(  c #A97787",
")  c #B77987",
"_  c #A67998",
"`  c #B77896",
"'  c #B36795",
"]  c #9972A2",
"[  c #AF73A5",
"{  c #C86986",
"}  c #DA6C84",
"|  c #D56A86",
" . c #C97689",
".. c #D87588",
"X. c #C87895",
"o. c #D97794",
"O. c #D3689A",
"+. c #E46D84",
"@. c #ED6C83",
"#. c #E56F89",
"$. c #EB6F88",
"%. c #F06C82",
"&. c #E4728C",
"*. c #EB728B",
"=. c #E87486",
"-. c #F57B83",
";. c #E47792",
":. c #D26DAA",
">. c #C25988",
",. c #98898E",
"<. c #A5858A",
"1. c #BA8487",
"2. c #A58897",
"3. c #B7869A",
"4. c #AB9396",
"5. c #B39691",
"6. c #B4AB95",
"7. c #9C90A1",
"8. c #A888A8",
"9. c #BA89A7",
"0. c #AB93A7",
"q. c #B795AA",
"w. c #B698B6",
"e. c #AF8EB5",
"r. c #B5A6B8",
"t. c #B5AAA7",
"y. c #C98688",
"u. c #D98889",
"i. c #DD968A",
"p. c #C78995",
"a. c #D48893",
"s. c #DB9796",
"d. c #CC9797",
"f. c #E98887",
"g. c #FC8D8B",
"h. c #F68885",
"j. c #EC9A83",
"k. c #EB9A8B",
"l. c #E99787",
"z. c #F59784",
"x. c #F99686",
"c. c #F49884",
"v. c #F3968A",
"b. c #FB958A",
"n. c #F2998B",
"m. c #F99989",
"M. c #E98A93",
"N. c #EC9B94",
"B. c #E89A98",
"V. c #F39D93",
"C. c #F59996",
"Z. c #F98C91",
"A. c #D6A797",
"S. c #D2A990",
"D. c #E7A789",
"F. c #EAB48C",
"G. c #EAA397",
"H. c #F4A195",
"J. c #F4A39B",
"K. c #EAB497",
"L. c #F7B797",
"P. c #F3AB8C",
"I. c #C797A8",
"U. c #CA9DB9",
"Y. c #D49AB6",
"T. c #C88FAE",
"R. c #EC98A4",
"E. c #DAB7A7",
"W. c #C6A5B8",
"Q. c #D3A2BC",
"!. c #D5BBBB",
"~. c #CBAFAC",
"^. c #F4A4A2",
"/. c #EEB0A8",
"(. c #BBCCB5",
"). c #F4C49B",
"_. c #D5CABA",
"`. c #F7C8A7",
"'. c #FEDBAC",
"]. c #FDDCA7",
"[. c #E4C6B8",
"{. c #FBD9B7",
"}. c #EECDB5",
"|. c #EFE7AB",
" X c #EFE9AC",
".X c #F1E7AD",
"XX c #F3EAA9",
"oX c #F7E7AA",
"OX c #EDE5B3",
"+X c #ECE5BB",
"@X c #F2E6B2",
"#X c #FDE3B3",
"$X c #F3E9B4",
"%X c #F8E9BA",
"&X c #D0EBBB",
"*X c #B992C7",
"=X c #BDABC2",
"-X c #C796C6",
";X c #C9A8C7",
":X c #D8A8C5",
">X c #C8B7C7",
",X c #DAB7C8",
"<X c #D8A9DA",
"1X c #DAB8D5",
"2X c #CBA8D6",
"3X c #E9BAC9",
"4X c #F8B8CC",
"5X c #E8B8D6",
"6X c #F5BCD2",
"7X c #E4ADCA",
"8X c #E5BBE6",
"9X c #E7BCF5",
"0X c #DAA3D6",
"qX c #D9C8C7",
"wX c #D6C8D6",
"eX c #CFC7D3",
"rX c #E9C5CA",
"tX c #E9D5CA",
"yX c #EAC8D6",
"uX c #F4C2D4",
"iX c #F5C8D7",
"pX c #E8D6D6",
"aX c #F6D8D9",
"sX c #F8D4C7",
"dX c #ECE6C5",
"fX c #F7EAC7",
"gX c #FCF1C9",
"hX c #EDE4D5",
"jX c #F5E6DE",
"kX c #F6E9DE",
"lX c #F7E8D9",
"zX c #FEF4D7",
"xX c #EDC5EB",
"cX c #E8C8E7",
"vX c #F3CAEB",
"bX c #EAD7E8",
"nX c #F8DAE4",
"mX c #ECC7F4",
"MX c #F4CAF4",
"NX c #F8D5F7",
"BX c #EED3F6",
"VX c #F5E6E3",
"CX c #FAE5E2",
"ZX c #FFEDED",
"AX c #F8E8E7",
"SX c #FEF2EC",
"DX c #FFFAE7",
"FX c #FDEDF2",
"GX c #FCEBFC",
"HX c #F8E7F7",
"JX c #F4F3F4",
"KX c #FCF4FC",
"LX c #FFFAFF",
"PX c #FCF6F4",
"IX c #EDE3ED",
"UX c #DDC9E6",
/* pixels */
"XXXXXXXXXXXXXXXXXXXXXXXXXXXXXXXXXXXXXXXXXX$XdXDXi / ;.v 4 ( E.S.= y.G.G.1.i p h j m m r g l l l l l l l g 9 [ r.w.r.r.=XJX",
"XXXXXXXXXXXXXXXXXXXXXXXXXXXXXXXXXXXXXXXXXX$XdX!.f { v r s 1.[.G a d.H j 1.) h y.B.B.^.M.c | &.$.#.#.#.#...r e 7 + 8.bX% JX",
"XXXXXXXXXXXXXXXXXXXXXXXXXXXXXXXXXXXXXXXXXX+XjX@  .| 0 b ^.A.F * E.S.k > A.{.{.`.k.N.y.a.d c =.B N %.%.C %.@.*.;.f 2.bX,.wX",
"XXXXXXXXXXXXXXXXXXXXXXXXXXXXXXXXXXXX.X$XfXzXVX6 / t z M.G.1.o t._.> E.fXL.H D.l.k.i.; = u.C.h.A C Z C V C C C *.e _ KXbX% ",
"XXXXXXXXXXXXXXXXXXXXXXXXXXXXXXXXXXXX$XdXkXAXAXu , { =.+...j . y OXS.L D.D.c.j.N.u.; i.N.v.c.b.b.h.A Z C C C V *.e ! LXbX* ",
"XXXXXXXXXXXXXXXXXXXXXXXXXXXXXXXX$XOXzX_.o E GXNXe g ..=.d s sX+X@X].].F.J l.V.u.; i.v.v.c.z.z.x.x.g.g.A M A Z =.f <.PXJXIX",
"XXXXXXXXXXXXXXXXXXXXXXXXXXXXXXXX XzX~.h tXE.R ^ / o.d = G }.%X$XoXoXoX#XP.k.y.s i.v.c.z.c.z.J x.z.x.x.K x.g.K C.g ( LXJXJX",
"XXXXXXXXXXXXXXXXXXXXXXXXXXXXXXXXgX6.4.~.B.s.f , X.q p.E.).%X.XXXXXXXXX#XL.k.H = V.c.c.z.z.z.x.x.z.z.z.c.z.z.m.m.i.<.0.KXKX",
"XXXXXXXXXXXXXXXXXXXXXXXXXXXXXX|.DXF G sXm B ..c s y./.'.#XXXXXXXXXXXXX#X`.H d H v.j.z.z.c.J m.J x.x.x.J J z.z.v.V.b 2 GXBX",
"XXXXXXXXXXXXXXXXXXXXXXXXXXXX XgX~.4.E.D.B %.+.g d /.D.F.oXoXXXXXoXXXXX%XS.s b G.l.l.z.z.c.c.x.x.J J x.x.x.z.c.z.n.u.( 9.vX",
"XXXXXXXXXXXXoXXXXXXXXXXXXX$XfX_.F E.L.f.S n c q N.k.J ).oXXXXXXXXXXXXXgXG s G.j.F.F.J z.z.z.z.z.x.x.x.J x.J c.z.c.H.i.f I.",
"XXXXXXXXXXXXoXoXXXXXXXXXXX+XDX& E.`.l.m.g.v - B.n.c.J L.oXoXoXXXXXXXoX}.G h D.L.#X#XP.j.x.m.J z.x.J x.J x.m.c.c.l.u.N.B.4 ",
"XXXXXXXXXXXXXXXXXXXXXXXX$XdXpXF A.L.j.n.M.m ; M.n.z.c.J F.oXoXoXoX%X{.k q u.K.#XoX#X#XD.J c.c.z.x.x.J x.z.z.z.H.j ; V.v.V.",
"XXXXXXXXXXXXXXXXXXXXXX.XfXzX& [./.J k.V...- ..v.v.z.x.J J F.{.{.'.{.d.; z B l.#XoXoXoXD.L j.c.c.J x.x.J z.z.v.N.j s V.z.c.",
"XXXXXXXXXXXXXXXXXXXXXX$XdXhXo [.L.l.G...: ..S g.b.z.x.c.l.k.B...n u.q g =.B l.{.oXoX'.D.).'.L.J x.J x.J c.j.H.m w ..n.c.z.",
"XXXXXXXXXXXXXXXXXXXXXXfXhXF E.K.D.H.b q } A A g.x.z.z.c.V.u.9 t +.&.9 >.$.C n l.{.{.P.L ].#XL.c.m.J x.x.c.v.^.d 0 f.x.z.z.",
"XXXXXXXXXXXXXXXXXXXX XfXpX& {.K.J V.j 9 *.N A g.x.z.z.V.y.e >.>.t o.9 >.$.C N B f.K v.c.P.P.P.c.J J m.x.z.V.j w v -.b.z.z.",
"XXXXXXXXXXXXXXXXXXXX XgXAXo }.K.l.C. .9 @.Z Z D g.z.z.C. .5 :.:.T r z } %.%.v l M B -.D h.b.x.b.m.x.J x.z.C.w r =.A h.b.x.",
"XXXXXXXXXXXXXXXXXX X+XdX6.5.L.D.V.u.r c %.C Z M -.C.^.u.g r T ;.o.- v %.V @.>.9 =.Z Z M D -.-.D K b.b.b.b.v.e r *.V N -.b.",
"XXXXXXXXXXXXXXXX X XzX_.. aXG.k.u.w z *.C C C N S b 1.4 e { t >.O.9 v @.V $.{ 9 =.C V C Z Z Z Z C h.h.h.f.=.9 T *.%.V M -.",
"XXXXXXXXXXXXXXXXXX XzXtX> }.N.V.q g *.C C C C @.) i & @ e o.| t / 1 | @.%.} T 1 *.V V V C C C C C Z Z M +.v / / | @.V V N ",
"XXXXXXXXXXXXXXXX X$XjX!.4 s.j.V.s r *.C C C C =.< 4.(.,.a  .X.{ 7 5 | @.$.z , 1 #.%.C C C C C C C C C %.&.1 Y.X.0 $.@.B } ",
"XXXXXXXXXXXXXXXX XgX!.y G.k.z.V.e r *.C C C C =.4 <._.&X6.> ) e 7X7 x @.$.z , 7 *.C C C C C C C C C C %...3 Y.3.0 &.| - 9 ",
"XXXXXXXXXXXXXXXXOXgX!.2 N.v.b.C.w r %.C C C C B  .. 6.&X&X6.6 5X5X7 x @.$./ , 7 #.C C C C C C C C C C A 9 Y.iX` e O.} +.| ",
"XXXXXXXXXXXXXX$XzX~.p s.k.l.N.d c +.@.C C C C C @.b y t.t.p ,X6X5X3 v #.&./ + 5 $.V C C C C C C C C %.+.< Q.6X4XX.e #.%.@.",
"XXXXXXXXXXXXXX XDX~.> J.v.V.R.; x @.C C C C C C C ;.4 . ,.!.iXyXcX7 { o.r X.X.5 #.V C C C C C C C C C +.< Y.6XiX9.1 ;.@.V ",
"XXXXXXXXXX X$XgX!.( H v.z.v.u.0 x %.%.V C C V V $.r 3.9.:X5X! _ _ 6 7 T 8 9.<X< #.V C C C C C C C C %.+.5 Q.uX3X7X` w =.@.",
"XXXXXXXXXX XOXzX4.i J.z.v.v...9 v %.V V C C V %.&.- Y.5X9.! % # # # O O O Q _ 5 $.V V V C C C C C C C +.< :X6X3X4X7X/ r } ",
"XXXXXXXXXXXXOXzX5.i G.J b.b...9 x $.V C C C C @.&.9 [ Q O O # P ] [ e.[ W % # Y &.%.V V C C C C C C C $.< Q.uXuX6XiX4X` / ",
"XXXXXXXXXXXX%XtX<.j V.v.b.v.b 0 v %.V C C C C C ..e # % P ] W [ MX9X0X0X[ P P 8 | @.%.V C C C C C C C =.< :X7XQ.Q.Y.;XU.8 ",
"XXXXXXXXXX$XDX,.h ^.n.c.v.v.- { $.V C C C C C %.o.t # P *XNXMXMX<XY # Y Y Y # # 9 ..%.C C C C C C V C =.< -X! O # % % # # ",
"XXXXXXXXXX XDX2.d H.v.z.z.M.3 { @.V V C C C C C o.7 + e.MXxXmX<XY [ :.:.[ Q U 6 5 ..$.%.C C C C C %.%.} 7 # $ P P U U P U ",
"XXXXXX.XoX+XDX( d V.z.v.h.n 9 { @.V V %.C C %.#.7 8 # e.MXvX<XY :.O.O.O.7XNXGXwX2 X.o.} @.%.C V V V @...7 + -X9X8X8X9X9X8X",
"XXXXXX.X$XgX<.<.N.v.z.x.g.n 9 { %.V %.@.C V V #.5 + e.xXcXBX8X8 O.O.| 4XHXFXPXNX:X8 1 9 | *.=.$.$.$.| e 0X<XMX-XY Q Y ] xX",
"XXXXXX.XOXzXp ) H.c.c.x.b.} 9 { @.%.x l %.C C #.Y # >XGXGX1Xf { O.6XR.^ wXLXLXbX_ :XU.Y.f < < 1 r o.X.5 0XNX-XY T T O.T Y ",
"XXXXXX XdXDXp j H.c.m.z.D B 9 { *.*.r 9 *.C C +.5 + eXLXLX,X, o.#.^.O.+ ~ 0.I.9.$ vXnXnXU.9.q.T.X.3 5 , 8X*XT :.:.:.:.:.;X",
"XXXXXX$XjX~.h i.n.c.m.h.M B z r } v g g z #.C $.g 8 ! wXLX_.=  .f.B.4 # # O 4 ^ U cXAXAXnXaXaXnX3X_ ` 9.w.T T T T T ` uXKX",
"XXXX.X%XAX& y.J.c.c.c.h.M $.o.9 { t / a.9 &.%.@.;.e   r.PXqX) u.v.J.i $ ~ 6 ^  .u bXnXjXkXCXCXCXCXaXnXvXU T 7XX.+ + 6 iXFX",
".XXX.X%XDXy H V.v.z.m.x.N +./ < { q / y.9 &.@.@.} e O r.JX_.E.G.k.l.j p u p y.a.u FXCXjXkXjXjXjXkXCXCXvXU ^ 4XI.% u 4 p.sX",
"XX X$XfXtXp y.n.z.b.b.h.$.} < 7 ' e j a.9 | @.$.*.r + 0.PX!.. A.l.D.K.5.F 5.E.y.u HXAXkXCXkXjXjXkXVXAXFXi / s.1.u ~ h B.B.",
"XX.XdXdX& [./.J c.n.M.n ..| 6 nX8.X j R.a.- n +.@.&.7 + w.qXu d.S.'.#X@X+X[.S.1.p JXVXlXjXkXjXjXjXVXVXZXu p.G.H k f j k.j.",
"XX$XgXhX& +XK.J c.V...;  .3 pXKX2.O j J.B.u.- } +.&.7 9.q.2.iXy {.{.@X@X].fXA.a ZXIXjXjXjXkXjXkXjXVXVXFXi 3.G.i.S.S.S.l.k.",
"XXOXfXhX& [.#XF.J H. .4 X.= aXjXbX<.s J.N.l.u.: | o.< 9.5X:XiXrXa }.fXOXfXS.<.aXVXVXjXjXjXjXkXjXjXkXVXZXy 3.A.K.'.'.`.i.G.",
"XXOXzXkXo [.fX'.P.N.1., i rXfXdXPX4.s ^.v.v.k.u.q 1 T.3.3.iXrXiX~.[.lXzXdX_.qXZXjXjXjXjXjXjXkXjXjXkXjXVXpXa A.{.@X.X#X}.> ",
" XdXhX,.S.{.).L.n./.E.X & DXdX+XPX4.s C.v.v.l.N.4 _ 7X7XQ.rX3X3X6X3XtXsXrXtXZXjXkXjXjXjXjXjXjXkXkXjXjXVXPXqX<.E.%X@X[.G ~.",
" XgXpX. +X).D.J l.L.d.2 r.hX$XOXPX4.s J.v.z.z.N.4 :XuXaXZXaX/.rX4X3X3X3XrXaXkXjXkXjXjXjXjXjXkXkXjXkXkXjXaXPX~.6.fXzXtX5.nX",
" XgXpX& sXD.J c.z.k.1.p DXdX+XfXpXp s V.n.c.z.v.g ) !.iXaXaXrXiXsXyXtXiXaXCXkXjXjXkXkXkXjXAXDXCXjXjXjXkXjXVXaXrXrXaXaXiX6X",
"OXgXpXy /.D.j.c.z.V.1.p zX+X+XzX4.2 y.n.v.x.v.C.o.0  .7XaXCXCXCXCXCXCXCXCXkXkXjXjXVXjXjXAXqX_.aXjXjXjXjXjXVXsXrXyX3X3X3XY.",
" XgXpX2 b v.z.z.J C.1.p zXdX+XDX,.( H.x.x.x.x.g.M &.w ` 6XnXCXCXkXjXjXjXkXCXjXjXjXjXjXjXSX4.4.aXjXkXjXjXjXjXlXCXaXrXyXY.4 ",
" XgXpX8 n g.b.z.z.H.) p DXdXdXlX( h H.J z.m.b.M M N ;.r ( 3X1XCXCXCXCXCXjXjXjXkXjXjXjXjXjXVXAXCXVXkXjXkXjXjXjXjXCXAX3X8 X.",
" XgXpX, } A h.m.z.C.y.p SXhXSX4..  .V.c.z.b.g.A V V @.| ^ 6 E 5X5XaXCXCXkXkXkXkXjXjXkXjXjXVXjXjXkXjXjXkXjXjXkXVXHX,X6 X.X.",
"OXlXpX2 } Z h.x.z.V. .. 4.AXKXp j B.n.m.b.b.A Z V @.;.r ' 8X;Xu u qXyXyXaXCXaXjXjXjXjXjXjXjXjXjXjXjXjXjXjXjXZXq.& 6 + 8 1 ",
".XgXyX2 | N g.b.x.n.N.j u HXKXi ) H.c.m.h.S N C @.*.e ' 8XMXxX;X1XE I * W.nXaXjXVXjXjXjXlXjXjXjXjXhXjXjXhXjXCXtX,X,X:X:X:X",
"OXgXpX2 } C A g.b.z.V.y.& GXq.1.l.v.z.b.g.M C C $.r :.5XMXvXvXvXGX>X;X>X2.u 0.nXaXFXFXAXFXPXZXZXFXFXFXZXZXZXFXAXnX5X( ` ` ",
".XgXpX8 } C N A h.m.n.i.) q.X a.V.c.x.g.D C C %.*.9 -XNXvXxXxXcXGXKXLXLXwXr.w.2.8.q.0.0.0.0.w.e.0.0.w.e.9.9.q.3.` ( e t 0 ",
" XgXpX2 ..@.V M D h.C.C.s.= s s.n.x.b.K M C C %.&.1 Y.NXxXvXxXvXbXJXJXJXLXIXw.U O O E E ! *   $ W W % O 6 i 7 3 e r ;.*.=.",
" XgXpX@ g +.%.C M A h.M. .s B.V.c.m.b.D Z C C %.;.9 _ UXMXxXmXmX;XHXJXKXIX7.8.2X6 ! 5XiX,X8.Q e.9X2XP Q [ ' o.;.&.*.@.V N ",
" XfXhX<.1 | %.V Z N n z ; B.n.z.z.b.D M Z C C %.&.e 6 e.8XmXmXmX2XHXJXIX7.e.NX2XU 5XuX,XE ;XNXBX9X*XP 2XQ 5 / { | } #.@.+.",
"XXOXfXjX4 | @.V C *.c q C.n.v.x.x.b.D Z C C C @.;.1 1XW.! mXmX9X2XBXGX,.r.KXBX;X* 1X1Xu eXKXGXIXmX<XP xX0X0X' 8 5 ^ | | { ",
"XX XlXaX4 { #.N %.*.g q C.z.z.z.b.K Z C C C %.@.o.< >XKX=XW 2X2X2XP % eXLXr.@ 6 2 2 6 cXFXJXJXKXGX2XU 8XMXMXmX8XxX-X8 5 5 ",
" XfXtXu { 0 | #.$.z w B.v.v.z.z.b.D C C V V @...3 :XKXJXJXBX*XP I UX~ wX>Xp s.u.i.a.2 pXLXJXJXLXwX~ IXHXcXcXcXvXmXmX-XY 8X",
"|.gXpX2  .| 0 x ;.l q J.k.b.z.x.K M C V V %.+.w X 1XLXLXeX* W UXwXKX~ $ @ ^ ^.V.m.N.p.E wXPXJXLXwX* KXJXHXHXbXcXNX<XQ *XQ ",
"|.gXpX@ ..#.v 0 v g ; J.v.x.z.x.D M C C V %.| < W.IXLX>X7.=XeXLXKXJXeXeX! f M.-.S V./.. eXLXLXeX7.eXJXJXKXKXHXBX;X] *X9Xw.",
"|.%XpXI.r +.&.z w g  .k.n.z.z.x.D Z C C C %.| < bXKXLX7.7.KXKXJXJXJXLXwX3.f z B B f./ I.t.wXLXr.I LXJXJXJXJXGXHXe.W mXMXNX"
};
